<?xml version="1.0" encoding="UTF-8" standalone="no"?>
<!-- Created with Inkscape (http://www.inkscape.org/) -->

<svg
   xmlns:dc="http://purl.org/dc/elements/1.1/"
   xmlns:cc="http://creativecommons.org/ns#"
   xmlns:rdf="http://www.w3.org/1999/02/22-rdf-syntax-ns#"
   xmlns:svg="http://www.w3.org/2000/svg"
   xmlns="http://www.w3.org/2000/svg"
   xmlns:sodipodi="http://sodipodi.sourceforge.net/DTD/sodipodi-0.dtd"
   xmlns:inkscape="http://www.inkscape.org/namespaces/inkscape"
   width="510"
   height="210"
   id="svg2"
   version="1.1"
   inkscape:version="0.91 r"
   sodipodi:docname="logo0.svg"
   inkscape:export-filename="Widap vector logo 8 hd.png"
   inkscape:export-xdpi="360"
   inkscape:export-ydpi="360">
  <defs
     id="defs4" />
  <sodipodi:namedview
     id="base"
     pagecolor="#000000"
     bordercolor="#ffffff"
     borderopacity="1"
     inkscape:pageopacity="0"
     inkscape:pageshadow="2"
     inkscape:zoom="1.0000001"
     inkscape:cx="-305.21562"
     inkscape:cy="271.01044"
     inkscape:document-units="px"
     inkscape:current-layer="layer1"
     showgrid="true"
     inkscape:window-width="1440"
     inkscape:window-height="848"
     inkscape:window-x="0"
     inkscape:window-y="0"
     inkscape:window-maximized="1"
     inkscape:showpageshadow="false"
     showguides="true"
     inkscape:guide-bbox="true"
     objecttolerance="20"
     gridtolerance="10">
    <inkscape:grid
       type="xygrid"
       id="grid2985"
       empspacing="4"
       visible="true"
       enabled="true"
       snapvisiblegridlinesonly="true"
       spacingx="10px"
       spacingy="10px"
       empcolor="#0080ff"
       empopacity="0.25098039" />
    <inkscape:grid
       type="xygrid"
       id="grid2987"
       empspacing="1"
       visible="true"
       enabled="true"
       snapvisiblegridlinesonly="true"
       spacingx="160px"
       spacingy="160px"
       color="#00ffff"
       opacity="0.25098039"
       empcolor="#00ff80"
       empopacity="0.25098039" />
  </sodipodi:namedview>
  <metadata
     id="metadata7">
    <rdf:RDF>
      <cc:Work
         rdf:about="">
        <dc:format>image/svg+xml</dc:format>
        <dc:type
           rdf:resource="http://purl.org/dc/dcmitype/StillImage" />
        <dc:title></dc:title>
      </cc:Work>
    </rdf:RDF>
  </metadata>
  <g
     inkscape:label="Layer 1"
     inkscape:groupmode="layer"
     id="layer1"
     transform="translate(0,-842.36218)">
    <rect
       style="fill:#333333;fill-opacity:1;stroke:#000000;stroke-width:0;stroke-miterlimit:4;stroke-dasharray:none;stroke-opacity:0"
       id="rect4219"
       width="304.16708"
       height="304.16708"
       x="-353.89951"
       y="530.28699" />
    <path
       style="fill:#808080;fill-opacity:0.50196081"
       d="M -282.09766 -237.68359 C -319.1275 -237.68359 -349.14648 -214.23985 -349.14648 -185.32031 C -349.14649 -175.18617 -345.45083 -165.73096 -339.06836 -157.71484 C -317.10371 -120.4718 -273.03089 -69.718841 -226.33984 -72.689453 C -274.09352 -87.863166 -287.95738 -127.07761 -262.36719 -135.26562 C -234.96793 -141.84538 -215.04882 -161.76434 -215.04883 -185.32031 C -215.04883 -214.23985 -245.06782 -237.68359 -282.09766 -237.68359 z M -328.61523 -213.99414 L -252.58203 -213.74414 L -252.58203 -204.62891 L -328.61523 -204.87891 L -328.61523 -213.99414 z M -328.86523 -194.30273 L -277.21289 -194.30273 L -277.21289 -184.58008 L -328.86523 -184.58008 L -328.86523 -194.30273 z M -328.86523 -172.56055 L -266.88281 -172.40625 L -266.88281 -164.09766 L -328.86523 -164.25195 L -328.86523 -172.56055 z "
       transform="translate(0,842.36218)"
       id="path3420-5-6"
       inkscape:export-xdpi="360"
       inkscape:export-ydpi="360" />
    <path
       style="fill:#ff00ff"
       d="m 360,912.36146 a 40,40 0 0 0 -40,40 40,40 0 0 0 40,40.0002 40,40 0 0 0 40,-40.0002 40,40 0 0 0 -40,-40 z m 0,20 a 20,20 0 0 1 20,20 20,20 0 0 1 -20,20 20,20 0 0 1 -20,-20 20,20 0 0 1 20,-20 z"
       id="path3384"
       inkscape:connector-curvature="0"
       inkscape:export-filename="/home/william/Widap/logo/v8 png/Widap.net vector logo 8 for blogger.png"
       inkscape:export-xdpi="87.324326"
       inkscape:export-ydpi="87.324326" />
    <rect
       style="fill:#ff00ff"
       id="rect3388"
       width="20"
       height="80"
       x="379.99973"
       y="912.36218"
       inkscape:export-filename="/home/william/Widap/logo/v8 png/Widap.net vector logo 8 for blogger.png"
       inkscape:export-xdpi="87.324326"
       inkscape:export-ydpi="87.324326" />
    <rect
       style="fill:#ff00ff"
       id="rect3390"
       width="19.999817"
       height="120"
       x="409.99985"
       y="912.36218"
       inkscape:export-filename="/home/william/Widap/logo/v8 png/Widap.net vector logo 8 for blogger.png"
       inkscape:export-xdpi="87.324326"
       inkscape:export-ydpi="87.324326" />
    <path
       style="fill:#ff00ff"
       d="m 450.00005,912.36146 a 40,40 0 0 0 -40,40 40,40 0 0 0 40,40.0002 40,40 0 0 0 40,-40.0002 40,40 0 0 0 -40,-40 z m 0,20 a 20,20 0 0 1 20,20 20,20 0 0 1 -20,20 20,20 0 0 1 -20,-20 20,20 0 0 1 20,-20 z"
       id="path3392"
       inkscape:connector-curvature="0"
       inkscape:export-filename="/home/william/Widap/logo/v8 png/Widap.net vector logo 8 for blogger.png"
       inkscape:export-xdpi="87.324326"
       inkscape:export-ydpi="87.324326" />
    <rect
       style="fill:#ff00ff"
       id="rect3394"
       width="20.000183"
       height="120"
       x="289.99966"
       y="872.36218"
       inkscape:export-filename="/home/william/Widap/logo/v8 png/Widap.net vector logo 8 for blogger.png"
       inkscape:export-xdpi="87.324326"
       inkscape:export-ydpi="87.324326" />
    <path
       style="fill:#ff00ff"
       d="m 270,912.36146 a 40,40 0 0 0 -40,40 40,40 0 0 0 40,40.0002 40,40 0 0 0 40,-40.0002 40,40 0 0 0 -40,-40 z m 0,20 a 20,20 0 0 1 20,20 20,20 0 0 1 -20,20 20,20 0 0 1 -20,-20 20,20 0 0 1 20,-20 z"
       id="path3396"
       inkscape:connector-curvature="0"
       inkscape:export-filename="/home/william/Widap/logo/v8 png/Widap.net vector logo 8 for blogger.png"
       inkscape:export-xdpi="87.324326"
       inkscape:export-ydpi="87.324326" />
    <rect
       style="fill:#ff00ff"
       id="rect3398"
       width="20"
       height="80"
       x="199.99913"
       y="912.36218"
       inkscape:export-filename="/home/william/Widap/logo/v8 png/Widap.net vector logo 8 for blogger.png"
       inkscape:export-xdpi="87.324326"
       inkscape:export-ydpi="87.324326" />
    <circle
       style="fill:#ff00ff"
       id="path3402"
       cx="209.9991"
       cy="882.36218"
       r="20"
       inkscape:export-filename="/home/william/Widap/logo/v8 png/Widap.net vector logo 8 for blogger.png"
       inkscape:export-xdpi="87.324326"
       inkscape:export-ydpi="87.324326" />
    <path
       style="fill:#ff00ff"
       d="m 100,952.36146 a 40,40 0 0 0 40,40.0002 40,40 0 0 0 40,-40.0002 l -20,0 a 20,20 0 0 1 -20,20 20,20 0 0 1 -20,-20 l -20,0 z"
       id="path3404"
       inkscape:connector-curvature="0"
       inkscape:export-filename="/home/william/Widap/logo/v8 png/Widap.net vector logo 8 for blogger.png"
       inkscape:export-xdpi="87.324326"
       inkscape:export-ydpi="87.324326" />
    <path
       style="fill:#ff00ff"
       d="m 20,952.36146 a 40,40 0 0 0 40,40.0002 40,40 0 0 0 40,-40.0002 l -20,0 a 20,20 0 0 1 -20,20 20,20 0 0 1 -20,-20 l -20,0 z"
       id="path3404-4"
       inkscape:connector-curvature="0"
       inkscape:export-filename="/home/william/Widap/logo/v8 png/Widap.net vector logo 8 for blogger.png"
       inkscape:export-xdpi="87.324326"
       inkscape:export-ydpi="87.324326" />
    <rect
       style="fill:#ff00ff"
       id="rect3436"
       width="20"
       height="80"
       x="159.99915"
       y="872.36218"
       inkscape:export-filename="/home/william/Widap/logo/v8 png/Widap.net vector logo 8 for blogger.png"
       inkscape:export-xdpi="87.324326"
       inkscape:export-ydpi="87.324326" />
    <rect
       style="fill:#ff00ff"
       id="rect3438"
       width="20"
       height="80"
       x="20.000114"
       y="872.36218"
       inkscape:export-filename="/home/william/Widap/logo/v8 png/Widap.net vector logo 8 for blogger.png"
       inkscape:export-xdpi="87.324326"
       inkscape:export-ydpi="87.324326" />
    <path
       style="fill:#ff00ff"
       d="m 100,932.36146 a 20,20 0 0 0 -20,20 l 40,0 a 20,20 0 0 0 -20,-20 z"
       id="path3521"
       inkscape:connector-curvature="0"
       inkscape:export-filename="/home/william/Widap/logo/v8 png/Widap.net vector logo 8 for blogger.png"
       inkscape:export-xdpi="87.324326"
       inkscape:export-ydpi="87.324326" />
    <path
       style="fill:#ff00ff"
       d="M -160 -20 A 100 100 0 0 0 -260 80 A 100 100 0 0 0 -160 180 A 100 100 0 0 0 -60 80 A 100 100 0 0 0 -160 -20 z M -240 30 L -220 30 L -220 110 A 20 20 0 0 0 -200 130 A 20 20 0 0 0 -180 110 A 20 20 0 0 1 -160 90 A 20 20 0 0 1 -140 110 A 20 20 0 0 0 -120 130 A 20 20 0 0 0 -100 110 L -100 30 L -80 30 L -80 110 A 40 40 0 0 1 -120 150 A 40 40 0 0 1 -160 110 A 40 40 0 0 1 -200 150 A 40 40 0 0 1 -240 110 L -240 30 z "
       transform="translate(0,842.36218)"
       id="path3420" />
    <path
       inkscape:export-xdpi="360"
       inkscape:export-ydpi="360"
       style="fill:#ff00ff;fill-opacity:1"
       d="M -160 -270 A 100 100 0 0 0 -260 -170 A 100 100 0 0 0 -256.70703 -145.04297 C -252.00659 -114.61258 -251.24328 -59.483183 -290.44531 -43.208984 C -241.39822 -40.088503 -218.49058 -75.871092 -179.82422 -72.089844 A 100 100 0 0 0 -160 -70 A 100 100 0 0 0 -60 -170 A 100 100 0 0 0 -160 -270 z M -240 -220 L -220 -220 L -220 -140 A 20 20 0 0 0 -200 -120 A 20 20 0 0 0 -180 -140 A 20 20 0 0 1 -160 -160 A 20 20 0 0 1 -140 -140 A 20 20 0 0 0 -120 -120 A 20 20 0 0 0 -100 -140 L -100 -220 L -80 -220 L -80 -140 A 40 40 0 0 1 -120 -100 A 40 40 0 0 1 -160 -140 A 40 40 0 0 1 -200 -100 A 40 40 0 0 1 -240 -140 L -240 -220 z M -208.43555 -214.07617 A 7.5293765 7.5293832 0 0 1 -200.90625 -206.54688 A 7.5293765 7.5293832 0 0 1 -208.43555 -199.01758 A 7.5293765 7.5293832 0 0 1 -215.96484 -206.54688 A 7.5293765 7.5293832 0 0 1 -208.43555 -214.07617 z M -178.31836 -210.3125 L -170.78906 -210.3125 L -170.78906 -165.13477 L -178.31836 -165.13477 L -178.31836 -167.16992 A 15.058729 15.058777 0 0 1 -185.84766 -165.13477 A 15.058729 15.058777 0 0 1 -200.90625 -180.19531 A 15.058729 15.058777 0 0 1 -185.84766 -195.25391 A 15.058729 15.058777 0 0 1 -178.31836 -193.21484 L -178.31836 -210.3125 z M -151.96484 -195.25391 A 15.058729 15.058777 0 0 1 -144.43555 -193.21289 L -144.43555 -195.25195 L -136.90625 -195.25195 L -136.90625 -165.13477 L -144.43555 -165.13477 L -144.43555 -167.16992 A 15.058729 15.058777 0 0 1 -151.96484 -165.13477 A 15.058729 15.058777 0 0 1 -167.02539 -180.19531 A 15.058729 15.058777 0 0 1 -151.96484 -195.25391 z M -118.08398 -195.25391 A 15.058729 15.058777 0 0 1 -103.02539 -180.19531 A 15.058729 15.058777 0 0 1 -118.08398 -165.13477 A 15.058729 15.058777 0 0 1 -125.61328 -167.17383 L -125.61328 -150.07617 L -133.14258 -150.07617 L -133.14258 -195.25195 L -125.61328 -195.25195 L -125.61328 -193.21875 A 15.058729 15.058777 0 0 1 -118.08398 -195.25391 z M -212.20117 -195.25195 L -204.67188 -195.25195 L -204.67188 -165.13477 L -212.20117 -165.13477 L -212.20117 -195.25195 z M -185.84766 -187.72461 A 7.5293627 7.5293872 0 0 0 -193.37695 -180.19531 A 7.5293627 7.5293872 0 0 0 -185.84766 -172.66602 A 7.5293627 7.5293872 0 0 0 -178.31836 -180.19531 A 7.5293627 7.5293872 0 0 0 -185.84766 -187.72461 z M -151.96484 -187.72461 A 7.5293627 7.5293872 0 0 0 -159.49414 -180.19531 A 7.5293627 7.5293872 0 0 0 -151.96484 -172.66602 A 7.5293627 7.5293872 0 0 0 -144.43555 -180.19531 A 7.5293627 7.5293872 0 0 0 -151.96484 -187.72461 z M -118.08398 -187.72461 A 7.5293627 7.5293872 0 0 0 -125.61328 -180.19531 A 7.5293627 7.5293872 0 0 0 -118.08398 -172.66602 A 7.5293627 7.5293872 0 0 0 -110.55469 -180.19531 A 7.5293627 7.5293872 0 0 0 -118.08398 -187.72461 z "
       transform="translate(0,842.36218)"
       id="path3420-5" />
    <circle
       style="fill:#ff00ff;fill-opacity:1"
       id="path4158"
       cx="510"
       cy="992.36218"
       r="20"
       inkscape:export-filename="/home/william/Widap/logo/v8 png/Widap.net vector logo 8 for blogger.png"
       inkscape:export-xdpi="87.324326"
       inkscape:export-ydpi="87.324326" />
    <path
       style="fill:#ff00ff;fill-opacity:1"
       d="m 580.00005,912.36218 a 40,40 0 0 0 -40,40 l 20,0 a 20,20 0 0 1 20,-20 20,20 0 0 1 20,20 l 20,0 a 40,40 0 0 0 -40,-40 z"
       id="path4162"
       inkscape:connector-curvature="0"
       inkscape:export-filename="/home/william/Widap/logo/v8 png/Widap.net vector logo 8 for blogger.png"
       inkscape:export-xdpi="87.324326"
       inkscape:export-ydpi="87.324326" />
    <rect
       style="fill:#ff00ff;fill-opacity:1"
       id="rect4170"
       width="20"
       height="80"
       x="540"
       y="912.36218"
       inkscape:export-filename="/home/william/Widap/logo/v8 png/Widap.net vector logo 8 for blogger.png"
       inkscape:export-xdpi="87.324326"
       inkscape:export-ydpi="87.324326" />
    <rect
       style="fill:#ff00ff;fill-opacity:1"
       id="rect4172"
       width="20"
       height="40"
       x="600"
       y="952.36218"
       inkscape:export-filename="/home/william/Widap/logo/v8 png/Widap.net vector logo 8 for blogger.png"
       inkscape:export-xdpi="87.324326"
       inkscape:export-ydpi="87.324326" />
    <path
       style="fill:#ff00ff;fill-opacity:1"
       d="M 670 70 A 40 40 0 0 0 630 110 A 40 40 0 0 0 670 150 A 40 40 0 0 0 704.58398 130 L 670 130 A 20 20 0 0 1 650 110 A 20 20 0 0 1 670 90 A 20 20 0 0 1 690 110 A 20 20 0 0 1 687.29883 120 L 708.69922 120 A 40 40 0 0 0 710 110 A 40 40 0 0 0 670 70 z "
       transform="translate(0,842.36218)"
       id="path4178"
       inkscape:export-filename="/home/william/Widap/logo/v8 png/Widap.net vector logo 8 for blogger.png"
       inkscape:export-xdpi="87.324326"
       inkscape:export-ydpi="87.324326" />
    <rect
       style="fill:#ff00ff;fill-opacity:1"
       id="rect4183"
       width="60"
       height="20"
       x="640"
       y="942.36218"
       inkscape:export-filename="/home/william/Widap/logo/v8 png/Widap.net vector logo 8 for blogger.png"
       inkscape:export-xdpi="87.324326"
       inkscape:export-ydpi="87.324326" />
    <path
       style="fill:#ff00ff;fill-opacity:1"
       d="M 720 130 A 20 20 0 0 0 740 150 A 20 20 0 0 0 760 130 L 720 130 z "
       transform="translate(0,842.36218)"
       id="path4190"
       inkscape:export-filename="/home/william/Widap/logo/v8 png/Widap.net vector logo 8 for blogger.png"
       inkscape:export-xdpi="87.324326"
       inkscape:export-ydpi="87.324326" />
    <rect
       style="fill:#ff00ff;fill-opacity:1"
       id="rect4195"
       width="20"
       height="100"
       x="720"
       y="872.36218"
       inkscape:export-filename="/home/william/Widap/logo/v8 png/Widap.net vector logo 8 for blogger.png"
       inkscape:export-xdpi="87.324326"
       inkscape:export-ydpi="87.324326" />
    <rect
       style="fill:#ff00ff;fill-opacity:1"
       id="rect4201"
       width="60"
       height="19.999998"
       x="700"
       y="892.36218"
       inkscape:export-filename="/home/william/Widap/logo/v8 png/Widap.net vector logo 8 for blogger.png"
       inkscape:export-xdpi="87.324326"
       inkscape:export-ydpi="87.324326" />
    <path
       inkscape:connector-curvature="0"
       style="fill:#ff00ff"
       d="M 518.15027,294.37376 A 140.50356,140.50356 0 0 0 377.64674,434.87732 140.50356,140.50356 0 0 0 518.15027,575.38092 140.50356,140.50356 0 0 0 658.65385,434.87732 140.50356,140.50356 0 0 0 518.15027,294.37376 Z m -112.40281,70.25179 28.10072,0 0,112.40285 a 28.100712,28.100712 0 0 0 28.1007,28.10072 28.100712,28.100712 0 0 0 28.10069,-28.10072 28.100712,28.100712 0 0 1 28.1007,-28.10071 28.100712,28.100712 0 0 1 28.10072,28.10071 28.100712,28.100712 0 0 0 28.10071,28.10072 28.100712,28.100712 0 0 0 28.10072,-28.10072 l 0,-112.40285 28.10071,0 0,112.40285 A 56.201426,56.201426 0 0 1 574.3517,533.22986 56.201426,56.201426 0 0 1 518.15027,477.0284 56.201426,56.201426 0 0 1 461.94888,533.22986 56.201426,56.201426 0 0 1 405.74746,477.0284 l 0,-112.40285 z m 44.34914,8.32318 a 10.579042,10.579052 0 0 1 10.57897,10.57892 10.579042,10.579052 0 0 1 -10.57897,10.57893 10.579042,10.579052 0 0 1 -10.57888,-10.57893 10.579042,10.579052 0 0 1 10.57888,-10.57892 z m 42.31573,5.28809 10.57893,0 0,63.47633 -10.57893,0 0,-2.85946 a 21.15805,21.158118 0 0 1 -10.57895,2.85946 21.15805,21.158118 0 0 1 -21.15781,-21.16059 21.15805,21.158118 0 0 1 21.15781,-21.15788 21.15805,21.158118 0 0 1 10.57895,2.86497 l 0,-24.02283 z m 37.02764,21.15786 a 21.15805,21.158118 0 0 1 10.5789,2.86771 l 0,-2.86496 10.57894,0 0,42.31572 -10.57894,0 0,-2.85946 a 21.15805,21.158118 0 0 1 -10.5789,2.85946 21.15805,21.158118 0 0 1 -21.16062,-21.16059 21.15805,21.158118 0 0 1 21.16062,-21.15788 z m 47.60381,0 a 21.15805,21.158118 0 0 1 21.15785,21.15788 21.15805,21.158118 0 0 1 -21.15785,21.16059 21.15805,21.158118 0 0 1 -10.57894,-2.86495 l 0,24.02281 -10.57892,0 0,-63.47358 10.57892,0 0,2.85672 a 21.15805,21.158118 0 0 1 10.57894,-2.85947 z m -132.238,0.002 10.57893,0 0,42.31571 -10.57893,0 0,-42.31571 z m 37.0276,10.57619 a 10.579023,10.579057 0 0 0 -10.57888,10.57894 10.579023,10.579057 0 0 0 10.57888,10.57893 10.579023,10.579057 0 0 0 10.57895,-10.57893 10.579023,10.579057 0 0 0 -10.57895,-10.57894 z m 47.60659,0 a 10.579023,10.579057 0 0 0 -10.57893,10.57894 10.579023,10.579057 0 0 0 10.57893,10.57893 10.579023,10.579057 0 0 0 10.5789,-10.57893 10.579023,10.579057 0 0 0 -10.5789,-10.57894 z m 47.60381,0 a 10.579023,10.579057 0 0 0 -10.57894,10.57894 10.579023,10.579057 0 0 0 10.57894,10.57893 10.579023,10.579057 0 0 0 10.57892,-10.57893 10.579023,10.579057 0 0 0 -10.57892,-10.57894 z"
       id="path3420-5-5"
       inkscape:export-xdpi="180"
       inkscape:export-ydpi="180"
       inkscape:export-filename="./path3420-5.png" />
    <path
       style="fill:#0000ff"
       d="m 240.00419,620.31617 a 9.2201222,9.2201222 0 0 0 -9.22012,9.22012 9.2201222,9.2201222 0 0 0 9.22012,9.22013 9.2201222,9.2201222 0 0 0 9.22012,-9.22013 9.2201222,9.2201222 0 0 0 -9.22012,-9.22012 z m -87.59116,4.61006 0,36.88049 a 18.440244,18.440244 0 0 0 18.44025,18.43575 18.440244,18.440244 0 0 0 18.44024,-18.44025 18.440244,18.440244 0 0 0 18.44025,18.44025 18.440244,18.440244 0 0 0 18.44024,-18.44025 l 0,-36.87599 -9.22012,0 0,36.88049 a 9.2201222,9.2201222 0 0 1 -9.22012,9.21563 9.2201222,9.2201222 0 0 1 -9.22013,-9.22013 9.2201222,9.2201222 0 0 0 -9.22012,-9.22012 9.2201222,9.2201222 0 0 0 -9.22012,9.22012 9.2201222,9.2201222 0 0 1 -9.22012,9.22013 9.2201222,9.2201222 0 0 1 -9.22013,-9.22013 l 0,-36.87599 -9.22012,0 z m 124.47165,0 0,20.93436 a 18.440244,18.440244 0 0 0 -9.22012,-2.49861 18.440244,18.440244 0 0 0 -18.44025,18.44024 18.440244,18.440244 0 0 0 18.44025,18.44025 18.440244,18.440244 0 0 0 9.22012,-2.48962 l 0,2.49411 9.22012,0 0,-55.32073 -9.22012,0 z m 198.23263,0 0,9.22012 -9.22013,0 0,9.22012 9.22013,0 0,27.66037 a 9.2201222,9.2201222 0 0 0 9.22012,9.21563 9.2201222,9.2201222 0 0 0 9.22012,-9.22012 l -9.22012,0 0,-27.65588 9.22012,0 0,-9.22012 -9.22012,0 0,-9.22012 -9.22012,0 z m -165.9622,18.43575 a 18.440244,18.440244 0 0 0 -18.44025,18.44024 18.440244,18.440244 0 0 0 18.44025,18.44025 18.440244,18.440244 0 0 0 9.22012,-2.48962 l 0,2.49411 9.22012,0 0,-18.44474 0,-18.43575 -9.22012,0 0,2.49412 a 18.440244,18.440244 0 0 0 -9.22012,-2.49861 z m 41.49054,0 a 18.440244,18.440244 0 0 0 -9.22011,2.49411 l 0,-2.48962 -9.22012,0 0,55.32074 9.22012,0 0,-20.93886 a 18.440244,18.440244 0 0 0 9.22011,2.49412 18.440244,18.440244 0 0 0 18.44025,-18.44025 18.440244,18.440244 0 0 0 -18.44025,-18.44024 z m 59.93081,0 a 18.440244,18.440244 0 0 0 -9.22013,2.49411 l 0,-2.48962 -9.22012,0 0,36.88049 9.22012,0 0,-18.44474 a 9.2201222,9.2201222 0 0 1 9.22013,-9.22012 9.2201222,9.2201222 0 0 1 9.22012,9.22012 l 0,18.44025 9.22012,0 0,-18.44025 a 18.440244,18.440244 0 0 0 -18.44024,-18.44024 z m 41.49054,0 a 18.440244,18.440244 0 0 0 -18.44024,18.44024 18.440244,18.440244 0 0 0 18.44024,18.44025 18.440244,18.440244 0 0 0 15.94164,-9.22012 l -15.94164,0 a 9.2201222,9.2201222 0 0 1 -7.97305,-4.61007 l 21.80323,0 4.01129,0 a 18.440244,18.440244 0 0 0 0.59878,-4.61006 18.440244,18.440244 0 0 0 -18.44025,-18.44024 z m -216.67288,0.005 0,36.88049 9.22014,0 0,-36.88049 -9.22014,0 z m 32.27044,9.21563 a 9.2201222,9.2201222 0 0 1 9.22012,9.22012 9.2201222,9.2201222 0 0 1 -9.22012,9.22013 9.2201222,9.2201222 0 0 1 -9.22012,-9.22013 9.2201222,9.2201222 0 0 1 9.22012,-9.22012 z m 41.49055,0 a 9.2201222,9.2201222 0 0 1 9.22012,9.22012 9.2201222,9.2201222 0 0 1 -9.22012,9.22013 9.2201222,9.2201222 0 0 1 -9.22013,-9.22013 9.2201222,9.2201222 0 0 1 9.22013,-9.22012 z m 41.49054,0 a 9.2201222,9.2201222 0 0 1 9.22013,9.22012 9.2201222,9.2201222 0 0 1 -9.22013,9.22013 9.2201222,9.2201222 0 0 1 -9.22011,-9.22013 9.2201222,9.2201222 0 0 1 9.22011,-9.22012 z m 101.42135,0 a 9.2201222,9.2201222 0 0 1 7.96857,4.61006 l -15.94162,0 a 9.2201222,9.2201222 0 0 1 7.97305,-4.61006 z m -73.76098,18.44025 a 9.2201222,9.2201222 0 0 0 -9.22012,9.22012 9.2201222,9.2201222 0 0 0 9.22012,9.22011 9.2201222,9.2201222 0 0 0 9.22012,-9.22011 9.2201222,9.2201222 0 0 0 -9.22012,-9.22012 z"
       id="path3384-9"
       inkscape:connector-curvature="0" />
    <text
       xml:space="preserve"
       style="font-style:normal;font-variant:normal;font-weight:normal;font-stretch:normal;font-size:50px;line-height:125%;font-family:Ubuntu;-inkscape-font-specification:Ubuntu;letter-spacing:0px;word-spacing:0px;fill:#cccccc;fill-opacity:1;stroke:none;stroke-width:1px;stroke-linecap:butt;stroke-linejoin:miter;stroke-opacity:1;image-rendering:auto"
       x="-14.161453"
       y="324.13474"
       id="text3468"
       sodipodi:linespacing="125%"><tspan
         sodipodi:role="line"
         x="-14.161453"
         y="324.13474"
         id="tspan3472"
         style="font-size:50px;fill:#cccccc">William's</tspan><tspan
         sodipodi:role="line"
         x="-14.161453"
         y="386.63474"
         id="tspan3482"
         style="font-size:50px;fill:#cccccc">Interactive</tspan><tspan
         sodipodi:role="line"
         x="-14.161453"
         y="449.13474"
         id="tspan3480"
         style="font-size:50px;fill:#cccccc">Design and</tspan><tspan
         sodipodi:role="line"
         x="-14.161453"
         y="511.63474"
         id="tspan3478"
         style="font-size:50px;fill:#cccccc">Applications</tspan><tspan
         sodipodi:role="line"
         x="-14.161453"
         y="574.1347"
         id="tspan3476"
         style="font-size:50px;fill:#cccccc">Programming</tspan></text>
    <path
       style="font-style:normal;font-variant:normal;font-weight:normal;font-stretch:normal;font-size:50px;line-height:125%;font-family:Ubuntu;-inkscape-font-specification:Ubuntu;letter-spacing:0px;word-spacing:0px;fill:#cccccc;fill-opacity:1;stroke:none;stroke-width:1px;stroke-linecap:butt;stroke-linejoin:miter;stroke-opacity:1;image-rendering:auto"
       d="M -330.43164 -616.02734 L -335.08203 -615.22656 L -335.08203 -584.02734 C -335.08203 -581.56068 -334.48125 -579.74479 -333.28125 -578.57812 C -332.08125 -577.41146 -330.04831 -576.79323 -327.18164 -576.72656 L -326.53125 -580.62695 C -327.26458 -580.72695 -327.88086 -580.84323 -328.38086 -580.97656 C -328.88086 -581.14323 -329.28203 -581.37773 -329.58203 -581.67773 C -329.88203 -581.97773 -330.09909 -582.37695 -330.23242 -582.87695 C -330.36576 -583.37695 -330.43164 -584.01068 -330.43164 -584.77734 L -330.43164 -616.02734 z M -316.75977 -616.02734 L -321.41016 -615.22656 L -321.41016 -584.02734 C -321.41016 -581.56068 -320.80938 -579.74479 -319.60938 -578.57812 C -318.40938 -577.41146 -316.37643 -576.79323 -313.50977 -576.72656 L -312.85938 -580.62695 C -313.59271 -580.72695 -314.20898 -580.84323 -314.70898 -580.97656 C -315.20898 -581.14323 -315.61016 -581.37773 -315.91016 -581.67773 C -316.21016 -581.97773 -316.42721 -582.37695 -316.56055 -582.87695 C -316.69388 -583.37695 -316.75977 -584.01068 -316.75977 -584.77734 L -316.75977 -616.02734 z M -227.76367 -615.22656 L -227.76367 -612.77734 C -227.76367 -611.11068 -227.66484 -609.37812 -227.46484 -607.57812 C -227.26484 -605.81146 -227.01484 -604.04401 -226.71484 -602.27734 L -223.96484 -602.27734 C -223.66484 -604.04401 -223.41484 -605.81146 -223.21484 -607.57812 C -223.01484 -609.37813 -222.91406 -611.09323 -222.91406 -612.72656 L -222.91406 -615.22656 L -227.76367 -615.22656 z M -345.37695 -614.02734 C -346.21029 -614.02734 -346.92734 -613.7444 -347.52734 -613.17773 C -348.09401 -612.6444 -348.37695 -611.9099 -348.37695 -610.97656 C -348.37695 -610.04323 -348.09401 -609.29323 -347.52734 -608.72656 C -346.92734 -608.19323 -346.21029 -607.92773 -345.37695 -607.92773 C -344.54362 -607.92773 -343.84401 -608.19323 -343.27734 -608.72656 C -342.67734 -609.29323 -342.37695 -610.04323 -342.37695 -610.97656 C -342.37695 -611.9099 -342.67734 -612.6444 -343.27734 -613.17773 C -343.84401 -613.7444 -344.54362 -614.02734 -345.37695 -614.02734 z M -305.33789 -614.02734 C -306.17122 -614.02734 -306.88828 -613.7444 -307.48828 -613.17773 C -308.05495 -612.6444 -308.33789 -611.9099 -308.33789 -610.97656 C -308.33789 -610.04323 -308.05495 -609.29323 -307.48828 -608.72656 C -306.88828 -608.19323 -306.17122 -607.92773 -305.33789 -607.92773 C -304.50456 -607.92773 -303.80495 -608.19323 -303.23828 -608.72656 C -302.63828 -609.29323 -302.33789 -610.04323 -302.33789 -610.97656 C -302.33789 -611.9099 -302.63828 -612.6444 -303.23828 -613.17773 C -303.80495 -613.7444 -304.50456 -614.02734 -305.33789 -614.02734 z M -396.76172 -611.87695 C -395.59505 -605.21029 -394.34505 -599.04362 -393.01172 -593.37695 C -391.64505 -587.71029 -390.07721 -582.32656 -388.31055 -577.22656 L -383.46094 -577.22656 C -382.0276 -580.82656 -380.59544 -584.52812 -379.16211 -588.32812 C -377.72878 -592.12812 -376.31211 -596.2599 -374.91211 -600.72656 C -373.51211 -596.2599 -372.11094 -592.12812 -370.71094 -588.32812 C -369.31094 -584.52813 -367.87878 -580.82656 -366.41211 -577.22656 L -361.56055 -577.22656 C -359.82721 -582.32656 -358.29427 -587.71029 -356.96094 -593.37695 C -355.59427 -599.04362 -354.31133 -605.21029 -353.11133 -611.87695 L -358.06055 -611.87695 C -358.52721 -609.27695 -359.01172 -606.66068 -359.51172 -604.02734 C -360.01172 -601.42734 -360.52721 -598.8944 -361.06055 -596.42773 C -361.56055 -593.9944 -362.07799 -591.66107 -362.61133 -589.42773 C -363.14466 -587.1944 -363.6776 -585.14401 -364.21094 -583.27734 C -365.54427 -586.77734 -366.97839 -590.61068 -368.51172 -594.77734 C -370.04505 -598.97734 -371.46172 -603.31068 -372.76172 -607.77734 L -376.96094 -607.77734 C -378.26094 -603.31068 -379.66211 -598.97734 -381.16211 -594.77734 C -382.66211 -590.61068 -384.07878 -586.77734 -385.41211 -583.27734 C -385.97878 -585.17734 -386.52721 -587.24323 -387.06055 -589.47656 C -387.59388 -591.7099 -388.12878 -594.04323 -388.66211 -596.47656 C -389.19544 -598.94323 -389.71094 -601.47813 -390.21094 -604.07812 C -390.71094 -606.67813 -391.19544 -609.27695 -391.66211 -611.87695 L -396.76172 -611.87695 z M -286.54297 -603.87695 C -288.1763 -603.87695 -289.6918 -603.74323 -291.0918 -603.47656 C -292.4918 -603.24323 -293.4918 -602.99323 -294.0918 -602.72656 L -293.54297 -598.87695 C -292.9763 -599.11029 -292.12552 -599.32734 -290.99219 -599.52734 C -289.82552 -599.76068 -288.47669 -599.87695 -286.94336 -599.87695 C -285.74336 -599.87695 -284.7763 -599.69479 -284.04297 -599.32812 C -283.2763 -598.99479 -282.67552 -598.52773 -282.24219 -597.92773 C -281.80885 -597.36107 -281.50846 -596.6944 -281.3418 -595.92773 C -281.17513 -595.1944 -281.0918 -594.4444 -281.0918 -593.67773 L -281.0918 -592.37695 C -281.22513 -592.41029 -281.45964 -592.46068 -281.79297 -592.52734 C -282.1263 -592.59401 -282.52552 -592.6599 -282.99219 -592.72656 C -283.42552 -592.82656 -283.89258 -592.8944 -284.39258 -592.92773 C -284.89258 -592.9944 -285.37513 -593.02734 -285.8418 -593.02734 C -287.30846 -593.02734 -288.70964 -592.87813 -290.04297 -592.57812 C -291.3763 -592.27812 -292.54297 -591.81107 -293.54297 -591.17773 C -294.54297 -590.5444 -295.34336 -589.71107 -295.94336 -588.67773 C -296.51003 -587.6444 -296.79297 -586.4099 -296.79297 -584.97656 C -296.79297 -583.47656 -296.54297 -582.19362 -296.04297 -581.12695 C -295.54297 -580.06029 -294.84336 -579.19401 -293.94336 -578.52734 C -293.04336 -577.89401 -291.97552 -577.42695 -290.74219 -577.12695 C -289.50885 -576.82695 -288.16003 -576.67773 -286.69336 -576.67773 C -285.66003 -576.67773 -284.62513 -576.72812 -283.5918 -576.82812 C -282.52513 -576.89479 -281.54258 -576.97812 -280.64258 -577.07812 C -279.74258 -577.17813 -278.94219 -577.27695 -278.24219 -577.37695 C -277.50885 -577.51029 -276.94297 -577.61107 -276.54297 -577.67773 L -276.54297 -593.92773 C -276.54297 -595.3944 -276.70964 -596.72773 -277.04297 -597.92773 C -277.3763 -599.16107 -277.94219 -600.21146 -278.74219 -601.07812 C -279.50885 -601.97813 -280.5418 -602.66029 -281.8418 -603.12695 C -283.10846 -603.62695 -284.6763 -603.87695 -286.54297 -603.87695 z M -207.45312 -603.87695 C -210.38646 -603.87695 -212.70234 -603.19479 -214.40234 -601.82812 C -216.10234 -600.49479 -216.95312 -598.67695 -216.95312 -596.37695 C -216.95313 -595.21029 -216.75352 -594.22773 -216.35352 -593.42773 C -215.95352 -592.62773 -215.41862 -591.94362 -214.75195 -591.37695 C -214.08529 -590.81029 -213.30234 -590.31029 -212.40234 -589.87695 C -211.46901 -589.47695 -210.50195 -589.07773 -209.50195 -588.67773 C -207.43529 -587.8444 -205.95273 -587.0944 -205.05273 -586.42773 C -204.15273 -585.76107 -203.70312 -584.8599 -203.70312 -583.72656 C -203.70313 -582.62656 -204.17018 -581.82812 -205.10352 -581.32812 C -206.00352 -580.82812 -207.40273 -580.57812 -209.30273 -580.57812 C -211.23607 -580.57812 -212.78646 -580.77773 -213.95312 -581.17773 C -215.11979 -581.57773 -215.96862 -581.87812 -216.50195 -582.07812 L -217.35352 -578.07812 C -216.88685 -577.87813 -216.00312 -577.59323 -214.70312 -577.22656 C -213.40312 -576.82656 -211.60273 -576.62695 -209.30273 -576.62695 C -206.00273 -576.62695 -203.46979 -577.24323 -201.70312 -578.47656 C -199.90312 -579.7099 -199.00195 -581.52773 -199.00195 -583.92773 C -199.00195 -585.16107 -199.18607 -586.19401 -199.55273 -587.02734 C -199.9194 -587.89401 -200.45234 -588.62656 -201.15234 -589.22656 C -201.81901 -589.82656 -202.63685 -590.34401 -203.60352 -590.77734 C -204.57018 -591.24401 -205.66901 -591.71107 -206.90234 -592.17773 C -207.83568 -592.51107 -208.63607 -592.82695 -209.30273 -593.12695 C -209.9694 -593.42695 -210.53529 -593.74479 -211.00195 -594.07812 C -211.43529 -594.44479 -211.76862 -594.84401 -212.00195 -595.27734 C -212.20195 -595.71068 -212.30273 -596.21068 -212.30273 -596.77734 C -212.30273 -597.87734 -211.82018 -598.67773 -210.85352 -599.17773 C -209.88685 -599.71107 -208.75313 -599.97656 -207.45312 -599.97656 C -205.95313 -599.97656 -204.67018 -599.82734 -203.60352 -599.52734 C -202.53685 -599.26068 -201.75195 -598.99323 -201.25195 -598.72656 L -200.40234 -602.72656 C -200.66901 -602.82656 -201.05273 -602.94479 -201.55273 -603.07812 C -202.0194 -603.21146 -202.56979 -603.32773 -203.20312 -603.42773 C -203.83646 -603.56107 -204.51862 -603.6599 -205.25195 -603.72656 C -205.98529 -603.82656 -206.71979 -603.87695 -207.45312 -603.87695 z M -258.56836 -603.77734 C -260.86836 -603.77734 -262.9013 -603.62813 -264.66797 -603.32812 C -266.4013 -603.02812 -267.80247 -602.74323 -268.86914 -602.47656 L -268.86914 -577.22656 L -264.21875 -577.22656 L -264.21875 -599.17773 C -264.08542 -599.21107 -263.81797 -599.26146 -263.41797 -599.32812 C -263.01797 -599.39479 -262.58581 -599.44323 -262.11914 -599.47656 C -261.61914 -599.54323 -261.10169 -599.59362 -260.56836 -599.62695 C -260.03503 -599.66029 -259.53503 -599.67773 -259.06836 -599.67773 C -257.96836 -599.67773 -257.06914 -599.49362 -256.36914 -599.12695 C -255.63581 -598.79362 -255.06797 -598.26068 -254.66797 -597.52734 C -254.23464 -596.79401 -253.93424 -595.87734 -253.76758 -594.77734 C -253.60091 -593.67734 -253.51758 -592.36146 -253.51758 -590.82812 L -253.51758 -577.22656 L -248.86914 -577.22656 L -248.86914 -591.82812 C -248.86914 -592.96146 -248.93503 -594.04479 -249.06836 -595.07812 C -249.20169 -596.11146 -249.4013 -597.06107 -249.66797 -597.92773 C -249.3013 -598.26107 -248.61914 -598.62734 -247.61914 -599.02734 C -246.58581 -599.46068 -245.28542 -599.67773 -243.71875 -599.67773 C -242.58542 -599.67773 -241.66875 -599.49362 -240.96875 -599.12695 C -240.23542 -598.79362 -239.66758 -598.26068 -239.26758 -597.52734 C -238.83424 -596.79401 -238.5513 -595.87734 -238.41797 -594.77734 C -238.2513 -593.67734 -238.16797 -592.36146 -238.16797 -590.82812 L -238.16797 -577.22656 L -233.51758 -577.22656 L -233.51758 -591.82812 C -233.51758 -593.56146 -233.6513 -595.16029 -233.91797 -596.62695 C -234.1513 -598.09362 -234.63581 -599.36107 -235.36914 -600.42773 C -236.06914 -601.4944 -237.05169 -602.31029 -238.31836 -602.87695 C -239.58503 -603.47695 -241.21875 -603.77734 -243.21875 -603.77734 C -244.25208 -603.77734 -245.21914 -603.66107 -246.11914 -603.42773 C -247.01914 -603.22773 -247.83503 -602.97773 -248.56836 -602.67773 C -249.30169 -602.41107 -249.91797 -602.12813 -250.41797 -601.82812 C -250.91797 -601.52813 -251.28424 -601.29362 -251.51758 -601.12695 C -252.28424 -601.99362 -253.23581 -602.64479 -254.36914 -603.07812 C -255.50247 -603.54479 -256.90169 -603.77734 -258.56836 -603.77734 z M -347.67773 -603.22656 L -347.67773 -577.22656 L -343.02734 -577.22656 L -343.02734 -603.22656 L -347.67773 -603.22656 z M -307.63867 -603.22656 L -307.63867 -577.22656 L -302.98828 -577.22656 L -302.98828 -603.22656 L -307.63867 -603.22656 z M -285.44336 -589.27734 C -284.37669 -589.27734 -283.47552 -589.21146 -282.74219 -589.07812 C -281.97552 -588.97812 -281.42513 -588.8444 -281.0918 -588.67773 L -281.0918 -580.92773 C -281.65846 -580.7944 -282.37552 -580.69362 -283.24219 -580.62695 C -284.07552 -580.59362 -285.04258 -580.57812 -286.14258 -580.57812 C -287.97591 -580.57812 -289.42552 -580.89401 -290.49219 -581.52734 C -291.55885 -582.19401 -292.0918 -583.36068 -292.0918 -585.02734 C -292.0918 -585.92734 -291.87669 -586.6444 -291.44336 -587.17773 C -291.01003 -587.7444 -290.47513 -588.17656 -289.8418 -588.47656 C -289.17513 -588.8099 -288.46003 -589.02695 -287.69336 -589.12695 C -286.89336 -589.22695 -286.14336 -589.27734 -285.44336 -589.27734 z M -213.3457 -551.52734 C -214.17904 -551.52734 -214.89609 -551.2444 -215.49609 -550.67773 C -216.06276 -550.1444 -216.3457 -549.4099 -216.3457 -548.47656 C -216.3457 -547.54323 -216.06276 -546.79323 -215.49609 -546.22656 C -214.89609 -545.69323 -214.17904 -545.42773 -213.3457 -545.42773 C -212.51237 -545.42773 -211.81276 -545.69323 -211.24609 -546.22656 C -210.64609 -546.79323 -210.3457 -547.54323 -210.3457 -548.47656 C -210.3457 -549.4099 -210.64609 -550.1444 -211.24609 -550.67773 C -211.81276 -551.2444 -212.51237 -551.52734 -213.3457 -551.52734 z M -393.86133 -549.37695 L -393.86133 -514.72656 L -389.01172 -514.72656 L -389.01172 -549.37695 L -393.86133 -549.37695 z M -347.62305 -548.77734 L -352.27344 -547.97656 L -352.27344 -524.77734 C -352.27344 -523.04401 -352.13971 -521.51107 -351.87305 -520.17773 C -351.57305 -518.87773 -351.07305 -517.77695 -350.37305 -516.87695 C -349.67305 -515.97695 -348.75638 -515.29479 -347.62305 -514.82812 C -346.45638 -514.39479 -344.99128 -514.17773 -343.22461 -514.17773 C -341.72461 -514.17773 -340.39128 -514.3599 -339.22461 -514.72656 C -338.05794 -515.0599 -337.2401 -515.34479 -336.77344 -515.57812 L -337.67383 -519.42773 C -338.00716 -519.2944 -338.60794 -519.0599 -339.47461 -518.72656 C -340.30794 -518.42656 -341.42422 -518.27734 -342.82422 -518.27734 C -343.62422 -518.27734 -344.32383 -518.37813 -344.92383 -518.57812 C -345.52383 -518.77812 -346.02383 -519.11146 -346.42383 -519.57812 C -346.82383 -520.07812 -347.12422 -520.74479 -347.32422 -521.57812 C -347.52422 -522.44479 -347.62305 -523.52812 -347.62305 -524.82812 L -347.62305 -536.82812 L -337.77344 -536.82812 L -337.77344 -540.72656 L -347.62305 -540.72656 L -347.62305 -548.77734 z M -231.41211 -548.77734 L -236.0625 -547.97656 L -236.0625 -524.77734 C -236.0625 -523.04401 -235.92878 -521.51107 -235.66211 -520.17773 C -235.36211 -518.87773 -234.86211 -517.77695 -234.16211 -516.87695 C -233.46211 -515.97695 -232.54544 -515.29479 -231.41211 -514.82812 C -230.24544 -514.39479 -228.78034 -514.17773 -227.01367 -514.17773 C -225.51367 -514.17773 -224.18034 -514.3599 -223.01367 -514.72656 C -221.84701 -515.0599 -221.02917 -515.34479 -220.5625 -515.57812 L -221.46289 -519.42773 C -221.79622 -519.2944 -222.39701 -519.0599 -223.26367 -518.72656 C -224.09701 -518.42656 -225.21328 -518.27734 -226.61328 -518.27734 C -227.41328 -518.27734 -228.11289 -518.37813 -228.71289 -518.57812 C -229.31289 -518.77812 -229.81289 -519.11146 -230.21289 -519.57812 C -230.61289 -520.07812 -230.91328 -520.74479 -231.11328 -521.57812 C -231.31328 -522.44479 -231.41211 -523.52813 -231.41211 -524.82812 L -231.41211 -536.82812 L -221.5625 -536.82812 L -221.5625 -540.72656 L -231.41211 -540.72656 L -231.41211 -548.77734 z M -321.94531 -541.37695 C -323.44531 -541.37695 -324.91237 -541.09401 -326.3457 -540.52734 C -327.77904 -539.96068 -329.04453 -539.1099 -330.14453 -537.97656 C -331.24453 -536.84323 -332.12826 -535.41107 -332.79492 -533.67773 C -333.46159 -531.97773 -333.79492 -529.97773 -333.79492 -527.67773 C -333.79492 -525.71107 -333.54492 -523.89323 -333.04492 -522.22656 C -332.51159 -520.59323 -331.7112 -519.17656 -330.64453 -517.97656 C -329.57786 -516.77656 -328.22904 -515.82695 -326.5957 -515.12695 C -324.92904 -514.46029 -322.96198 -514.12695 -320.69531 -514.12695 C -318.89531 -514.12695 -317.29453 -514.29362 -315.89453 -514.62695 C -314.4612 -514.96029 -313.4612 -515.27812 -312.89453 -515.57812 L -313.54492 -519.47656 C -314.11159 -519.2099 -314.96237 -518.92695 -316.0957 -518.62695 C -317.1957 -518.36029 -318.56198 -518.22656 -320.19531 -518.22656 C -323.09531 -518.22656 -325.22904 -518.92812 -326.5957 -520.32812 C -327.96237 -521.72812 -328.74531 -523.77656 -328.94531 -526.47656 L -311.14453 -526.47656 C -311.1112 -526.74323 -311.0957 -527.02812 -311.0957 -527.32812 L -311.0957 -528.12695 C -311.0957 -532.59362 -312.02786 -535.91146 -313.89453 -538.07812 C -315.7612 -540.27812 -318.44531 -541.37695 -321.94531 -541.37695 z M -276.67969 -541.37695 C -278.31302 -541.37695 -279.82852 -541.24323 -281.22852 -540.97656 C -282.62852 -540.74323 -283.62852 -540.49323 -284.22852 -540.22656 L -283.67969 -536.37695 C -283.11302 -536.61029 -282.26224 -536.82734 -281.12891 -537.02734 C -279.96224 -537.26068 -278.61341 -537.37695 -277.08008 -537.37695 C -275.88008 -537.37695 -274.91302 -537.19479 -274.17969 -536.82812 C -273.41302 -536.49479 -272.81224 -536.02773 -272.37891 -535.42773 C -271.94557 -534.86107 -271.64518 -534.1944 -271.47852 -533.42773 C -271.31185 -532.6944 -271.22852 -531.9444 -271.22852 -531.17773 L -271.22852 -529.87695 C -271.36185 -529.91029 -271.59635 -529.96068 -271.92969 -530.02734 C -272.26302 -530.09401 -272.66224 -530.1599 -273.12891 -530.22656 C -273.56224 -530.32656 -274.0293 -530.3944 -274.5293 -530.42773 C -275.0293 -530.4944 -275.51185 -530.52734 -275.97852 -530.52734 C -277.44518 -530.52734 -278.84635 -530.37813 -280.17969 -530.07812 C -281.51302 -529.77812 -282.67969 -529.31107 -283.67969 -528.67773 C -284.67969 -528.0444 -285.48008 -527.21107 -286.08008 -526.17773 C -286.64674 -525.1444 -286.92969 -523.9099 -286.92969 -522.47656 C -286.92969 -520.97656 -286.67969 -519.69362 -286.17969 -518.62695 C -285.67969 -517.56029 -284.98008 -516.69401 -284.08008 -516.02734 C -283.18008 -515.39401 -282.11224 -514.92695 -280.87891 -514.62695 C -279.64557 -514.32695 -278.29674 -514.17773 -276.83008 -514.17773 C -275.79674 -514.17773 -274.76185 -514.22812 -273.72852 -514.32812 C -272.66185 -514.39479 -271.6793 -514.47812 -270.7793 -514.57812 C -269.8793 -514.67813 -269.07891 -514.77695 -268.37891 -514.87695 C -267.64557 -515.01029 -267.07969 -515.11107 -266.67969 -515.17773 L -266.67969 -531.42773 C -266.67969 -532.8944 -266.84635 -534.22773 -267.17969 -535.42773 C -267.51302 -536.66107 -268.07891 -537.71146 -268.87891 -538.57812 C -269.64557 -539.47813 -270.67852 -540.16029 -271.97852 -540.62695 C -273.24518 -541.12695 -274.81302 -541.37695 -276.67969 -541.37695 z M -248.00586 -541.37695 C -249.90586 -541.37695 -251.63841 -541.02812 -253.20508 -540.32812 C -254.73841 -539.66146 -256.0388 -538.7099 -257.10547 -537.47656 C -258.17214 -536.27656 -259.00547 -534.8444 -259.60547 -533.17773 C -260.17214 -531.51107 -260.45508 -529.67773 -260.45508 -527.67773 C -260.45508 -525.67773 -260.18763 -523.8444 -259.6543 -522.17773 C -259.12096 -520.5444 -258.32253 -519.12773 -257.25586 -517.92773 C -256.15586 -516.72773 -254.82253 -515.79362 -253.25586 -515.12695 C -251.65586 -514.46029 -249.80508 -514.12695 -247.70508 -514.12695 C -247.03841 -514.12695 -246.3543 -514.17734 -245.6543 -514.27734 C -244.92096 -514.34401 -244.2388 -514.44479 -243.60547 -514.57812 C -242.97214 -514.67813 -242.4043 -514.7944 -241.9043 -514.92773 C -241.4043 -515.0944 -241.02253 -515.26107 -240.75586 -515.42773 L -241.4043 -519.32812 C -241.97096 -519.06146 -242.75586 -518.81146 -243.75586 -518.57812 C -244.75586 -518.34479 -245.87214 -518.22656 -247.10547 -518.22656 C -248.6388 -518.22656 -249.93919 -518.44362 -251.00586 -518.87695 C -252.07253 -519.34362 -252.9543 -519.99479 -253.6543 -520.82812 C -254.32096 -521.66146 -254.82096 -522.66146 -255.1543 -523.82812 C -255.4543 -524.99479 -255.60547 -526.27773 -255.60547 -527.67773 C -255.60547 -530.81107 -254.92135 -533.19479 -253.55469 -534.82812 C -252.15469 -536.46146 -250.15469 -537.27734 -247.55469 -537.27734 C -246.52135 -537.27734 -245.5543 -537.17656 -244.6543 -536.97656 C -243.72096 -536.77656 -242.90508 -536.51107 -242.20508 -536.17773 L -241.1543 -540.12695 C -242.22096 -540.56029 -243.33919 -540.87813 -244.50586 -541.07812 C -245.67253 -541.27812 -246.83919 -541.37695 -248.00586 -541.37695 z M -168.13672 -541.37695 C -169.63672 -541.37695 -171.10378 -541.09401 -172.53711 -540.52734 C -173.97044 -539.96068 -175.23594 -539.1099 -176.33594 -537.97656 C -177.43594 -536.84323 -178.31966 -535.41107 -178.98633 -533.67773 C -179.65299 -531.97773 -179.98633 -529.97773 -179.98633 -527.67773 C -179.98633 -525.71107 -179.73633 -523.89323 -179.23633 -522.22656 C -178.70299 -520.59323 -177.9026 -519.17656 -176.83594 -517.97656 C -175.76927 -516.77656 -174.42044 -515.82695 -172.78711 -515.12695 C -171.12044 -514.46029 -169.15339 -514.12695 -166.88672 -514.12695 C -165.08672 -514.12695 -163.48594 -514.29362 -162.08594 -514.62695 C -160.6526 -514.96029 -159.6526 -515.27812 -159.08594 -515.57812 L -159.73633 -519.47656 C -160.30299 -519.2099 -161.15378 -518.92695 -162.28711 -518.62695 C -163.38711 -518.36029 -164.75339 -518.22656 -166.38672 -518.22656 C -169.28672 -518.22656 -171.42044 -518.92812 -172.78711 -520.32812 C -174.15378 -521.72812 -174.93672 -523.77656 -175.13672 -526.47656 L -157.33594 -526.47656 C -157.3026 -526.74323 -157.28711 -527.02812 -157.28711 -527.32812 L -157.28711 -528.12695 C -157.28711 -532.59362 -158.21927 -535.91146 -160.08594 -538.07812 C -161.9526 -540.27812 -164.63672 -541.37695 -168.13672 -541.37695 z M -370.33398 -541.27734 C -372.63398 -541.27734 -374.66888 -541.12813 -376.43555 -540.82812 C -378.20221 -540.52812 -379.61888 -540.24323 -380.68555 -539.97656 L -380.68555 -514.72656 L -376.03516 -514.72656 L -376.03516 -536.67773 C -375.86849 -536.71107 -375.60104 -536.76146 -375.23438 -536.82812 C -374.83437 -536.89479 -374.40221 -536.94323 -373.93555 -536.97656 C -373.43555 -537.04323 -372.9181 -537.09362 -372.38477 -537.12695 C -371.85143 -537.16029 -371.33398 -537.17773 -370.83398 -537.17773 C -369.60065 -537.17773 -368.56771 -537.01107 -367.73438 -536.67773 C -366.90104 -536.37773 -366.23438 -535.87773 -365.73438 -535.17773 C -365.23437 -534.47773 -364.88555 -533.56107 -364.68555 -532.42773 C -364.45221 -531.2944 -364.33398 -529.92813 -364.33398 -528.32812 L -364.33398 -514.72656 L -359.68555 -514.72656 L -359.68555 -529.32812 C -359.68555 -531.09479 -359.85221 -532.71107 -360.18555 -534.17773 C -360.51888 -535.6444 -361.10221 -536.8944 -361.93555 -537.92773 C -362.73555 -538.9944 -363.81888 -539.81029 -365.18555 -540.37695 C -366.55221 -540.97695 -368.26732 -541.27734 -370.33398 -541.27734 z M -294.81445 -541.27734 C -296.84779 -541.27734 -298.68112 -541.09323 -300.31445 -540.72656 C -301.94779 -540.39323 -303.31602 -540.02695 -304.41602 -539.62695 L -304.41602 -514.72656 L -299.76562 -514.72656 L -299.76562 -536.57812 C -299.49896 -536.64479 -298.94857 -536.76107 -298.11523 -536.92773 C -297.24857 -537.12773 -296.38229 -537.22656 -295.51562 -537.22656 C -294.18229 -537.22656 -293.09896 -537.12773 -292.26562 -536.92773 C -291.39896 -536.76107 -290.78268 -536.6099 -290.41602 -536.47656 L -289.61523 -540.52734 C -289.81523 -540.59401 -290.13112 -540.6599 -290.56445 -540.72656 C -290.96445 -540.82656 -291.41602 -540.9099 -291.91602 -540.97656 C -292.41602 -541.07656 -292.93151 -541.1444 -293.46484 -541.17773 C -293.96484 -541.2444 -294.41445 -541.27734 -294.81445 -541.27734 z M -215.64648 -540.72656 L -215.64648 -514.72656 L -210.99609 -514.72656 L -210.99609 -540.72656 L -215.64648 -540.72656 z M -206.15039 -540.72656 C -204.85039 -535.8599 -203.33294 -531.19323 -201.59961 -526.72656 C -199.83294 -522.2599 -198.13333 -518.2599 -196.5 -514.72656 L -192.30078 -514.72656 C -190.66745 -518.2599 -188.98333 -522.2599 -187.25 -526.72656 C -185.48333 -531.19323 -183.95039 -535.8599 -182.65039 -540.72656 L -187.45117 -540.72656 C -187.85117 -539.09323 -188.33372 -537.34323 -188.90039 -535.47656 C -189.43372 -533.64323 -190.01706 -531.8099 -190.65039 -529.97656 C -191.25039 -528.17656 -191.86667 -526.42656 -192.5 -524.72656 C -193.13333 -523.02656 -193.73411 -521.51107 -194.30078 -520.17773 C -194.86745 -521.51107 -195.46628 -523.02656 -196.09961 -524.72656 C -196.73294 -526.42656 -197.36667 -528.17656 -198 -529.97656 C -198.6 -531.8099 -199.18333 -533.64323 -199.75 -535.47656 C -200.28333 -537.34323 -200.75039 -539.09323 -201.15039 -540.72656 L -206.15039 -540.72656 z M -321.99414 -537.42773 C -320.09414 -537.42773 -318.61159 -536.74362 -317.54492 -535.37695 C -316.44492 -534.04362 -315.91198 -532.32656 -315.94531 -530.22656 L -328.8457 -530.22656 C -328.7457 -531.12656 -328.54414 -532.01029 -328.24414 -532.87695 C -327.91081 -533.74362 -327.4612 -534.51107 -326.89453 -535.17773 C -326.32786 -535.8444 -325.6457 -536.37734 -324.8457 -536.77734 C -324.01237 -537.21068 -323.06081 -537.42773 -321.99414 -537.42773 z M -168.18555 -537.42773 C -166.28555 -537.42773 -164.80299 -536.74362 -163.73633 -535.37695 C -162.63633 -534.04362 -162.10339 -532.32656 -162.13672 -530.22656 L -175.03711 -530.22656 C -174.93711 -531.12656 -174.73555 -532.01029 -174.43555 -532.87695 C -174.10221 -533.74362 -173.6526 -534.51107 -173.08594 -535.17773 C -172.51927 -535.8444 -171.83711 -536.37734 -171.03711 -536.77734 C -170.20378 -537.21068 -169.25221 -537.42773 -168.18555 -537.42773 z M -275.58008 -526.77734 C -274.51341 -526.77734 -273.61224 -526.71146 -272.87891 -526.57812 C -272.11224 -526.47812 -271.56185 -526.3444 -271.22852 -526.17773 L -271.22852 -518.42773 C -271.79518 -518.2944 -272.51224 -518.19362 -273.37891 -518.12695 C -274.21224 -518.09362 -275.1793 -518.07812 -276.2793 -518.07812 C -278.11263 -518.07812 -279.56224 -518.39401 -280.62891 -519.02734 C -281.69557 -519.69401 -282.22852 -520.86068 -282.22852 -522.52734 C -282.22852 -523.42734 -282.01341 -524.1444 -281.58008 -524.67773 C -281.14674 -525.2444 -280.61185 -525.67656 -279.97852 -525.97656 C -279.31185 -526.3099 -278.59674 -526.52695 -277.83008 -526.62695 C -277.03008 -526.72695 -276.28008 -526.77734 -275.58008 -526.77734 z M -150.25 -491.02734 L -154.90039 -490.22656 L -154.90039 -477.07812 C -155.46706 -477.44479 -156.33333 -477.82656 -157.5 -478.22656 C -158.63333 -478.62656 -159.95117 -478.82812 -161.45117 -478.82812 C -163.31784 -478.82812 -164.98451 -478.49479 -166.45117 -477.82812 C -167.88451 -477.16146 -169.09961 -476.22734 -170.09961 -475.02734 C -171.09961 -473.82734 -171.86706 -472.39323 -172.40039 -470.72656 C -172.90039 -469.0599 -173.15039 -467.22656 -173.15039 -465.22656 C -173.15039 -463.12656 -172.85 -461.22734 -172.25 -459.52734 C -171.61667 -457.86068 -170.73294 -456.44401 -169.59961 -455.27734 C -168.46628 -454.11068 -167.1 -453.21146 -165.5 -452.57812 C -163.9 -451.94479 -162.09961 -451.62695 -160.09961 -451.62695 C -157.93294 -451.62695 -156.01628 -451.77812 -154.34961 -452.07812 C -152.68294 -452.37812 -151.31667 -452.67656 -150.25 -452.97656 L -150.25 -491.02734 z M -306.02148 -489.02734 C -306.85482 -489.02734 -307.57188 -488.7444 -308.17188 -488.17773 C -308.73854 -487.6444 -309.02148 -486.9099 -309.02148 -485.97656 C -309.02148 -485.04323 -308.73854 -484.29323 -308.17188 -483.72656 C -307.57187 -483.19323 -306.85482 -482.92773 -306.02148 -482.92773 C -305.18815 -482.92773 -304.48854 -483.19323 -303.92188 -483.72656 C -303.32187 -484.29323 -303.02148 -485.04323 -303.02148 -485.97656 C -303.02148 -486.9099 -303.32187 -487.6444 -303.92188 -488.17773 C -304.48854 -488.7444 -305.18815 -489.02734 -306.02148 -489.02734 z M -384.66211 -487.22656 C -386.06211 -487.22656 -387.61055 -487.16068 -389.31055 -487.02734 C -390.97721 -486.92734 -392.49466 -486.71029 -393.86133 -486.37695 L -393.86133 -452.77734 C -392.49466 -452.44401 -390.97721 -452.22695 -389.31055 -452.12695 C -387.61055 -451.99362 -386.06211 -451.92773 -384.66211 -451.92773 C -381.82878 -451.92773 -379.22799 -452.27656 -376.86133 -452.97656 C -374.49466 -453.7099 -372.46172 -454.79323 -370.76172 -456.22656 C -369.06172 -457.69323 -367.74388 -459.52656 -366.81055 -461.72656 C -365.87721 -463.9599 -365.41211 -466.57813 -365.41211 -469.57812 C -365.41211 -472.57812 -365.87721 -475.17695 -366.81055 -477.37695 C -367.74388 -479.61029 -369.06172 -481.44362 -370.76172 -482.87695 C -372.46172 -484.34362 -374.49466 -485.42695 -376.86133 -486.12695 C -379.22799 -486.86029 -381.82878 -487.22656 -384.66211 -487.22656 z M -384.26172 -482.97656 C -379.66172 -482.97656 -376.2276 -481.7944 -373.96094 -479.42773 C -371.69427 -477.0944 -370.56055 -473.81146 -370.56055 -469.57812 C -370.56055 -465.34479 -371.69427 -462.0444 -373.96094 -459.67773 C -376.2276 -457.3444 -379.66172 -456.17773 -384.26172 -456.17773 C -385.62839 -456.17773 -386.69427 -456.19323 -387.46094 -456.22656 C -388.19427 -456.2599 -388.71172 -456.29479 -389.01172 -456.32812 L -389.01172 -482.82812 C -388.71172 -482.86146 -388.19427 -482.8944 -387.46094 -482.92773 C -386.69427 -482.96107 -385.62839 -482.97656 -384.26172 -482.97656 z M -348.11719 -478.87695 C -349.61719 -478.87695 -351.08424 -478.59401 -352.51758 -478.02734 C -353.95091 -477.46068 -355.21641 -476.6099 -356.31641 -475.47656 C -357.41641 -474.34323 -358.30013 -472.91107 -358.9668 -471.17773 C -359.63346 -469.47773 -359.9668 -467.47773 -359.9668 -465.17773 C -359.9668 -463.21107 -359.7168 -461.39323 -359.2168 -459.72656 C -358.68346 -458.09323 -357.88307 -456.67656 -356.81641 -455.47656 C -355.74974 -454.27656 -354.40091 -453.32695 -352.76758 -452.62695 C -351.10091 -451.96029 -349.13385 -451.62695 -346.86719 -451.62695 C -345.06719 -451.62695 -343.46641 -451.79362 -342.06641 -452.12695 C -340.63307 -452.46029 -339.63307 -452.77812 -339.06641 -453.07812 L -339.7168 -456.97656 C -340.28346 -456.7099 -341.13424 -456.42695 -342.26758 -456.12695 C -343.36758 -455.86029 -344.73385 -455.72656 -346.36719 -455.72656 C -349.26719 -455.72656 -351.40091 -456.42812 -352.76758 -457.82812 C -354.13424 -459.22813 -354.91719 -461.27656 -355.11719 -463.97656 L -337.31641 -463.97656 C -337.28307 -464.24323 -337.26758 -464.52812 -337.26758 -464.82812 L -337.26758 -465.62695 C -337.26758 -470.09362 -338.19974 -473.41146 -340.06641 -475.57812 C -341.93307 -477.77812 -344.61719 -478.87695 -348.11719 -478.87695 z M -322.6875 -478.87695 C -325.62083 -478.87695 -327.93672 -478.19479 -329.63672 -476.82812 C -331.33672 -475.49479 -332.1875 -473.67695 -332.1875 -471.37695 C -332.1875 -470.21029 -331.98789 -469.22773 -331.58789 -468.42773 C -331.18789 -467.62773 -330.65299 -466.94362 -329.98633 -466.37695 C -329.31966 -465.81029 -328.53672 -465.31029 -327.63672 -464.87695 C -326.70339 -464.47695 -325.73633 -464.07773 -324.73633 -463.67773 C -322.66966 -462.8444 -321.18711 -462.0944 -320.28711 -461.42773 C -319.38711 -460.76107 -318.9375 -459.8599 -318.9375 -458.72656 C -318.9375 -457.62656 -319.40456 -456.82812 -320.33789 -456.32812 C -321.23789 -455.82812 -322.63711 -455.57812 -324.53711 -455.57812 C -326.47044 -455.57813 -328.02083 -455.77773 -329.1875 -456.17773 C -330.35417 -456.57773 -331.20299 -456.87813 -331.73633 -457.07812 L -332.58789 -453.07812 C -332.12122 -452.87812 -331.2375 -452.59323 -329.9375 -452.22656 C -328.6375 -451.82656 -326.83711 -451.62695 -324.53711 -451.62695 C -321.23711 -451.62695 -318.70417 -452.24323 -316.9375 -453.47656 C -315.1375 -454.7099 -314.23633 -456.52773 -314.23633 -458.92773 C -314.23633 -460.16107 -314.42044 -461.19401 -314.78711 -462.02734 C -315.15378 -462.89401 -315.68672 -463.62656 -316.38672 -464.22656 C -317.05339 -464.82656 -317.87122 -465.34401 -318.83789 -465.77734 C -319.80456 -466.24401 -320.90339 -466.71107 -322.13672 -467.17773 C -323.07005 -467.51107 -323.87044 -467.82695 -324.53711 -468.12695 C -325.20378 -468.42695 -325.76966 -468.74479 -326.23633 -469.07812 C -326.66966 -469.44479 -327.00299 -469.84401 -327.23633 -470.27734 C -327.43633 -470.71068 -327.53711 -471.21068 -327.53711 -471.77734 C -327.53711 -472.87734 -327.05456 -473.67773 -326.08789 -474.17773 C -325.12122 -474.71107 -323.9875 -474.97656 -322.6875 -474.97656 C -321.1875 -474.97656 -319.90456 -474.82734 -318.83789 -474.52734 C -317.77122 -474.26068 -316.98633 -473.99323 -316.48633 -473.72656 L -315.63672 -477.72656 C -315.90339 -477.82656 -316.28711 -477.94479 -316.78711 -478.07812 C -317.25378 -478.21146 -317.80417 -478.32773 -318.4375 -478.42773 C -319.07083 -478.56107 -319.75299 -478.6599 -320.48633 -478.72656 C -321.21966 -478.82656 -321.95417 -478.87695 -322.6875 -478.87695 z M -218.08594 -478.87695 C -219.71927 -478.87695 -221.23477 -478.74323 -222.63477 -478.47656 C -224.03477 -478.24323 -225.03477 -477.99323 -225.63477 -477.72656 L -225.08594 -473.87695 C -224.51927 -474.11029 -223.66849 -474.32734 -222.53516 -474.52734 C -221.36849 -474.76068 -220.01966 -474.87695 -218.48633 -474.87695 C -217.28633 -474.87695 -216.31927 -474.69479 -215.58594 -474.32812 C -214.81927 -473.99479 -214.21849 -473.52773 -213.78516 -472.92773 C -213.35182 -472.36107 -213.05143 -471.6944 -212.88477 -470.92773 C -212.7181 -470.1944 -212.63477 -469.4444 -212.63477 -468.67773 L -212.63477 -467.37695 C -212.7681 -467.41029 -213.0026 -467.46068 -213.33594 -467.52734 C -213.66927 -467.59401 -214.06849 -467.6599 -214.53516 -467.72656 C -214.96849 -467.82656 -215.43555 -467.8944 -215.93555 -467.92773 C -216.43555 -467.9944 -216.9181 -468.02734 -217.38477 -468.02734 C -218.85143 -468.02734 -220.2526 -467.87812 -221.58594 -467.57812 C -222.91927 -467.27813 -224.08594 -466.81107 -225.08594 -466.17773 C -226.08594 -465.5444 -226.88633 -464.71107 -227.48633 -463.67773 C -228.05299 -462.6444 -228.33594 -461.4099 -228.33594 -459.97656 C -228.33594 -458.47656 -228.08594 -457.19362 -227.58594 -456.12695 C -227.08594 -455.06029 -226.38633 -454.19401 -225.48633 -453.52734 C -224.58633 -452.89401 -223.51849 -452.42695 -222.28516 -452.12695 C -221.05182 -451.82695 -219.70299 -451.67773 -218.23633 -451.67773 C -217.20299 -451.67773 -216.1681 -451.72812 -215.13477 -451.82812 C -214.0681 -451.89479 -213.08555 -451.97812 -212.18555 -452.07812 C -211.28555 -452.17813 -210.48516 -452.27695 -209.78516 -452.37695 C -209.05182 -452.51029 -208.48594 -452.61107 -208.08594 -452.67773 L -208.08594 -468.92773 C -208.08594 -470.3944 -208.2526 -471.72773 -208.58594 -472.92773 C -208.91927 -474.16107 -209.48516 -475.21146 -210.28516 -476.07812 C -211.05182 -476.97813 -212.08477 -477.66029 -213.38477 -478.12695 C -214.65143 -478.62695 -216.21927 -478.87695 -218.08594 -478.87695 z M -284.47656 -478.77734 C -286.44323 -478.77734 -288.20872 -478.44401 -289.77539 -477.77734 C -291.34206 -477.14401 -292.67539 -476.24479 -293.77539 -475.07812 C -294.84206 -473.94479 -295.6599 -472.57656 -296.22656 -470.97656 C -296.79323 -469.4099 -297.07617 -467.67734 -297.07617 -465.77734 C -297.07617 -463.61068 -296.77578 -461.7444 -296.17578 -460.17773 C -295.57578 -458.61107 -294.7599 -457.29323 -293.72656 -456.22656 C -292.69323 -455.19323 -291.49362 -454.42773 -290.12695 -453.92773 C -288.72695 -453.42773 -287.24245 -453.17773 -285.67578 -453.17773 C -284.14245 -453.17773 -282.80911 -453.37734 -281.67578 -453.77734 C -280.50911 -454.21068 -279.72617 -454.56146 -279.32617 -454.82812 L -279.32617 -453.72656 C -279.32617 -451.32656 -279.94245 -449.57656 -281.17578 -448.47656 C -282.37578 -447.37656 -284.36029 -446.82812 -287.12695 -446.82812 C -288.59362 -446.82812 -290.01029 -446.97734 -291.37695 -447.27734 C -292.71029 -447.54401 -293.84206 -447.8599 -294.77539 -448.22656 L -295.62695 -444.17773 C -294.56029 -443.81107 -293.31029 -443.49323 -291.87695 -443.22656 C -290.41029 -442.9599 -288.8599 -442.82812 -287.22656 -442.82812 C -283.02656 -442.82812 -279.89284 -443.72734 -277.82617 -445.52734 C -275.75951 -447.32734 -274.72656 -450.22656 -274.72656 -454.22656 L -274.72656 -477.42773 C -275.82656 -477.6944 -277.19284 -477.97734 -278.82617 -478.27734 C -280.42617 -478.61068 -282.3099 -478.77734 -284.47656 -478.77734 z M -256.36914 -478.77734 C -258.66914 -478.77734 -260.70404 -478.62812 -262.4707 -478.32812 C -264.23737 -478.02812 -265.65404 -477.74323 -266.7207 -477.47656 L -266.7207 -452.22656 L -262.07031 -452.22656 L -262.07031 -474.17773 C -261.90365 -474.21107 -261.6362 -474.26146 -261.26953 -474.32812 C -260.86953 -474.39479 -260.43737 -474.44323 -259.9707 -474.47656 C -259.4707 -474.54323 -258.95326 -474.59362 -258.41992 -474.62695 C -257.88659 -474.66029 -257.36914 -474.67773 -256.86914 -474.67773 C -255.63581 -474.67773 -254.60286 -474.51107 -253.76953 -474.17773 C -252.9362 -473.87773 -252.26953 -473.37773 -251.76953 -472.67773 C -251.26953 -471.97773 -250.9207 -471.06107 -250.7207 -469.92773 C -250.48737 -468.7944 -250.36914 -467.42812 -250.36914 -465.82812 L -250.36914 -452.22656 L -245.7207 -452.22656 L -245.7207 -466.82812 C -245.7207 -468.59479 -245.88737 -470.21107 -246.2207 -471.67773 C -246.55404 -473.1444 -247.13737 -474.3944 -247.9707 -475.42773 C -248.7707 -476.4944 -249.85404 -477.31029 -251.2207 -477.87695 C -252.58737 -478.47695 -254.30247 -478.77734 -256.36914 -478.77734 z M -190.06055 -478.77734 C -192.36055 -478.77734 -194.39544 -478.62812 -196.16211 -478.32812 C -197.92878 -478.02812 -199.34544 -477.74323 -200.41211 -477.47656 L -200.41211 -452.22656 L -195.76172 -452.22656 L -195.76172 -474.17773 C -195.59505 -474.21107 -195.3276 -474.26146 -194.96094 -474.32812 C -194.56094 -474.39479 -194.12878 -474.44323 -193.66211 -474.47656 C -193.16211 -474.54323 -192.64466 -474.59362 -192.11133 -474.62695 C -191.57799 -474.66029 -191.06055 -474.67773 -190.56055 -474.67773 C -189.32721 -474.67773 -188.29427 -474.51107 -187.46094 -474.17773 C -186.6276 -473.87773 -185.96094 -473.37773 -185.46094 -472.67773 C -184.96094 -471.97773 -184.61211 -471.06107 -184.41211 -469.92773 C -184.17878 -468.7944 -184.06055 -467.42812 -184.06055 -465.82812 L -184.06055 -452.22656 L -179.41211 -452.22656 L -179.41211 -466.82812 C -179.41211 -468.59479 -179.57878 -470.21107 -179.91211 -471.67773 C -180.24544 -473.1444 -180.82878 -474.3944 -181.66211 -475.42773 C -182.46211 -476.4944 -183.54544 -477.31029 -184.91211 -477.87695 C -186.27878 -478.47695 -187.99388 -478.77734 -190.06055 -478.77734 z M -308.32227 -478.22656 L -308.32227 -452.22656 L -303.67188 -452.22656 L -303.67188 -478.22656 L -308.32227 -478.22656 z M -348.16602 -474.92773 C -346.26602 -474.92773 -344.78346 -474.24362 -343.7168 -472.87695 C -342.6168 -471.54362 -342.08385 -469.82656 -342.11719 -467.72656 L -355.01758 -467.72656 C -354.91758 -468.62656 -354.71602 -469.51029 -354.41602 -470.37695 C -354.08268 -471.24362 -353.63307 -472.01107 -353.06641 -472.67773 C -352.49974 -473.3444 -351.81758 -473.87734 -351.01758 -474.27734 C -350.18424 -474.71068 -349.23268 -474.92773 -348.16602 -474.92773 z M -160.84961 -474.72656 C -159.58294 -474.72656 -158.41628 -474.51146 -157.34961 -474.07812 C -156.28294 -473.64479 -155.46706 -473.19323 -154.90039 -472.72656 L -154.90039 -456.27734 C -155.36706 -456.14401 -156.03372 -456.01029 -156.90039 -455.87695 C -157.73372 -455.77695 -158.78411 -455.72656 -160.05078 -455.72656 C -162.55078 -455.72656 -164.55078 -456.5444 -166.05078 -458.17773 C -167.55078 -459.8444 -168.30078 -462.19323 -168.30078 -465.22656 C -168.30078 -466.5599 -168.16706 -467.8099 -167.90039 -468.97656 C -167.63372 -470.14323 -167.19961 -471.14323 -166.59961 -471.97656 C -165.99961 -472.84323 -165.23411 -473.5099 -164.30078 -473.97656 C -163.33411 -474.47656 -162.18294 -474.72656 -160.84961 -474.72656 z M -284.42578 -474.67773 C -283.09245 -474.67773 -282.04206 -474.6099 -281.27539 -474.47656 C -280.47539 -474.37656 -279.84362 -474.26029 -279.37695 -474.12695 L -279.37695 -458.92773 C -279.97695 -458.46107 -280.79284 -458.0444 -281.82617 -457.67773 C -282.85951 -457.3444 -283.99323 -457.17773 -285.22656 -457.17773 C -286.12656 -457.17773 -287.01029 -457.3444 -287.87695 -457.67773 C -288.71029 -458.01107 -289.46029 -458.52656 -290.12695 -459.22656 C -290.76029 -459.92656 -291.27578 -460.81029 -291.67578 -461.87695 C -292.04245 -462.94362 -292.22656 -464.22656 -292.22656 -465.72656 C -292.22656 -468.42656 -291.5599 -470.59323 -290.22656 -472.22656 C -288.8599 -473.8599 -286.92578 -474.67773 -284.42578 -474.67773 z M -216.98633 -464.27734 C -215.91966 -464.27734 -215.01849 -464.21146 -214.28516 -464.07812 C -213.51849 -463.97813 -212.9681 -463.8444 -212.63477 -463.67773 L -212.63477 -455.92773 C -213.20143 -455.7944 -213.91849 -455.69362 -214.78516 -455.62695 C -215.61849 -455.59362 -216.58555 -455.57812 -217.68555 -455.57812 C -219.51888 -455.57812 -220.96849 -455.89401 -222.03516 -456.52734 C -223.10182 -457.19401 -223.63477 -458.36068 -223.63477 -460.02734 C -223.63477 -460.92734 -223.41966 -461.6444 -222.98633 -462.17773 C -222.55299 -462.7444 -222.0181 -463.17656 -221.38477 -463.47656 C -220.7181 -463.8099 -220.00299 -464.02695 -219.23633 -464.12695 C -218.43633 -464.22695 -217.68633 -464.27734 -216.98633 -464.27734 z M -297.52148 -428.52734 L -302.17188 -427.72656 L -302.17188 -396.52734 C -302.17188 -394.06068 -301.57109 -392.24479 -300.37109 -391.07812 C -299.17109 -389.91146 -297.13815 -389.29323 -294.27148 -389.22656 L -293.62109 -393.12695 C -294.35443 -393.22695 -294.9707 -393.34323 -295.4707 -393.47656 C -295.9707 -393.64323 -296.37188 -393.87773 -296.67188 -394.17773 C -296.97188 -394.47773 -297.18893 -394.87695 -297.32227 -395.37695 C -297.4556 -395.87695 -297.52148 -396.51068 -297.52148 -397.27734 L -297.52148 -428.52734 z M -286.09961 -426.52734 C -286.93294 -426.52734 -287.65 -426.2444 -288.25 -425.67773 C -288.81667 -425.1444 -289.09961 -424.4099 -289.09961 -423.47656 C -289.09961 -422.54323 -288.81667 -421.79323 -288.25 -421.22656 C -287.65 -420.69323 -286.93294 -420.42773 -286.09961 -420.42773 C -285.26628 -420.42773 -284.56667 -420.69323 -284 -421.22656 C -283.4 -421.79323 -283.09961 -422.54323 -283.09961 -423.47656 C -283.09961 -424.4099 -283.4 -425.1444 -284 -425.67773 C -284.56667 -426.2444 -285.26628 -426.52734 -286.09961 -426.52734 z M -203.9707 -426.52734 C -204.80404 -426.52734 -205.52109 -426.2444 -206.12109 -425.67773 C -206.68776 -425.1444 -206.9707 -424.4099 -206.9707 -423.47656 C -206.9707 -422.54323 -206.68776 -421.79323 -206.12109 -421.22656 C -205.52109 -420.69323 -204.80404 -420.42773 -203.9707 -420.42773 C -203.13737 -420.42773 -202.43776 -420.69323 -201.87109 -421.22656 C -201.27109 -421.79323 -200.9707 -422.54323 -200.9707 -423.47656 C -200.9707 -424.4099 -201.27109 -425.1444 -201.87109 -425.67773 C -202.43776 -426.2444 -203.13737 -426.52734 -203.9707 -426.52734 z M -383.81055 -424.37695 C -385.01055 -421.87695 -386.16172 -419.34401 -387.26172 -416.77734 C -388.36172 -414.24401 -389.47799 -411.57734 -390.61133 -408.77734 C -391.71133 -405.97734 -392.84505 -403.01029 -394.01172 -399.87695 C -395.17839 -396.77695 -396.42839 -393.39323 -397.76172 -389.72656 L -392.71094 -389.72656 L -389.56055 -398.57812 L -373.86133 -398.57812 C -373.32799 -397.07812 -372.81055 -395.59362 -372.31055 -394.12695 C -371.81055 -392.69362 -371.2776 -391.22656 -370.71094 -389.72656 L -365.41211 -389.72656 C -366.74544 -393.39323 -367.99544 -396.77695 -369.16211 -399.87695 C -370.32878 -403.01029 -371.47799 -405.97734 -372.61133 -408.77734 C -373.71133 -411.57734 -374.81211 -414.24401 -375.91211 -416.77734 C -377.01211 -419.34401 -378.16133 -421.87695 -379.36133 -424.37695 L -383.81055 -424.37695 z M -222.03711 -423.77734 L -226.6875 -422.97656 L -226.6875 -399.77734 C -226.6875 -398.04401 -226.55378 -396.51107 -226.28711 -395.17773 C -225.98711 -393.87773 -225.48711 -392.77695 -224.78711 -391.87695 C -224.08711 -390.97695 -223.17044 -390.29479 -222.03711 -389.82812 C -220.87044 -389.39479 -219.40534 -389.17773 -217.63867 -389.17773 C -216.13867 -389.17773 -214.80534 -389.3599 -213.63867 -389.72656 C -212.47201 -390.0599 -211.65417 -390.34479 -211.1875 -390.57812 L -212.08789 -394.42773 C -212.42122 -394.2944 -213.02201 -394.0599 -213.88867 -393.72656 C -214.72201 -393.42656 -215.83828 -393.27734 -217.23828 -393.27734 C -218.03828 -393.27734 -218.73789 -393.37812 -219.33789 -393.57812 C -219.93789 -393.77812 -220.43789 -394.11146 -220.83789 -394.57812 C -221.23789 -395.07812 -221.53828 -395.74479 -221.73828 -396.57812 C -221.93828 -397.44479 -222.03711 -398.52813 -222.03711 -399.82812 L -222.03711 -411.82812 L -212.1875 -411.82812 L -212.1875 -415.72656 L -222.03711 -415.72656 L -222.03711 -423.77734 z M -381.71094 -418.82812 C -380.5776 -416.32813 -379.49427 -413.7099 -378.46094 -410.97656 C -377.39427 -408.27656 -376.32839 -405.47812 -375.26172 -402.57812 L -388.16211 -402.57812 C -387.12878 -405.47813 -386.09388 -408.27656 -385.06055 -410.97656 C -383.99388 -413.7099 -382.8776 -416.32812 -381.71094 -418.82812 z M -264.70508 -416.37695 C -266.60508 -416.37695 -268.33763 -416.02812 -269.9043 -415.32812 C -271.43763 -414.66146 -272.73802 -413.7099 -273.80469 -412.47656 C -274.87135 -411.27656 -275.70469 -409.8444 -276.30469 -408.17773 C -276.87135 -406.51107 -277.1543 -404.67773 -277.1543 -402.67773 C -277.1543 -400.67773 -276.88685 -398.8444 -276.35352 -397.17773 C -275.82018 -395.5444 -275.02174 -394.12773 -273.95508 -392.92773 C -272.85508 -391.72773 -271.52174 -390.79362 -269.95508 -390.12695 C -268.35508 -389.46029 -266.5043 -389.12695 -264.4043 -389.12695 C -263.73763 -389.12695 -263.05352 -389.17734 -262.35352 -389.27734 C -261.62018 -389.34401 -260.93802 -389.44479 -260.30469 -389.57812 C -259.67135 -389.67813 -259.10352 -389.7944 -258.60352 -389.92773 C -258.10352 -390.0944 -257.72174 -390.26107 -257.45508 -390.42773 L -258.10352 -394.32812 C -258.67018 -394.06146 -259.45508 -393.81146 -260.45508 -393.57812 C -261.45508 -393.34479 -262.57135 -393.22656 -263.80469 -393.22656 C -265.33802 -393.22656 -266.63841 -393.44362 -267.70508 -393.87695 C -268.77174 -394.34362 -269.65352 -394.99479 -270.35352 -395.82812 C -271.02018 -396.66146 -271.52018 -397.66146 -271.85352 -398.82812 C -272.15352 -399.99479 -272.30469 -401.27773 -272.30469 -402.67773 C -272.30469 -405.81107 -271.62057 -408.19479 -270.25391 -409.82812 C -268.85391 -411.46146 -266.85391 -412.27734 -264.25391 -412.27734 C -263.22057 -412.27734 -262.25352 -412.17656 -261.35352 -411.97656 C -260.42018 -411.77656 -259.6043 -411.51107 -258.9043 -411.17773 L -257.85352 -415.12695 C -258.92018 -415.56029 -260.03841 -415.87813 -261.20508 -416.07812 C -262.37174 -416.27812 -263.53841 -416.37695 -264.70508 -416.37695 z M -244.0625 -416.37695 C -245.69583 -416.37695 -247.21133 -416.24323 -248.61133 -415.97656 C -250.01133 -415.74323 -251.01133 -415.49323 -251.61133 -415.22656 L -251.0625 -411.37695 C -250.49583 -411.61029 -249.64505 -411.82734 -248.51172 -412.02734 C -247.34505 -412.26068 -245.99622 -412.37695 -244.46289 -412.37695 C -243.26289 -412.37695 -242.29583 -412.19479 -241.5625 -411.82812 C -240.79583 -411.49479 -240.19505 -411.02773 -239.76172 -410.42773 C -239.32839 -409.86107 -239.02799 -409.1944 -238.86133 -408.42773 C -238.69466 -407.6944 -238.61133 -406.9444 -238.61133 -406.17773 L -238.61133 -404.87695 C -238.74466 -404.91029 -238.97917 -404.96068 -239.3125 -405.02734 C -239.64583 -405.09401 -240.04505 -405.1599 -240.51172 -405.22656 C -240.94505 -405.32656 -241.41211 -405.3944 -241.91211 -405.42773 C -242.41211 -405.4944 -242.89466 -405.52734 -243.36133 -405.52734 C -244.82799 -405.52734 -246.22917 -405.37812 -247.5625 -405.07812 C -248.89583 -404.77813 -250.0625 -404.31107 -251.0625 -403.67773 C -252.0625 -403.0444 -252.86289 -402.21107 -253.46289 -401.17773 C -254.02956 -400.1444 -254.3125 -398.9099 -254.3125 -397.47656 C -254.3125 -395.97656 -254.0625 -394.69362 -253.5625 -393.62695 C -253.0625 -392.56029 -252.36289 -391.69401 -251.46289 -391.02734 C -250.56289 -390.39401 -249.49505 -389.92695 -248.26172 -389.62695 C -247.02839 -389.32695 -245.67956 -389.17773 -244.21289 -389.17773 C -243.17956 -389.17773 -242.14466 -389.22812 -241.11133 -389.32812 C -240.04466 -389.39479 -239.06211 -389.47812 -238.16211 -389.57812 C -237.26211 -389.67813 -236.46172 -389.77695 -235.76172 -389.87695 C -235.02839 -390.01029 -234.4625 -390.11107 -234.0625 -390.17773 L -234.0625 -406.42773 C -234.0625 -407.8944 -234.22917 -409.22773 -234.5625 -410.42773 C -234.89583 -411.66107 -235.46172 -412.71146 -236.26172 -413.57812 C -237.02839 -414.47813 -238.06133 -415.16029 -239.36133 -415.62695 C -240.62799 -416.12695 -242.19583 -416.37695 -244.0625 -416.37695 z M -182.82617 -416.37695 C -184.59284 -416.37695 -186.22461 -416.04362 -187.72461 -415.37695 C -189.22461 -414.74362 -190.525 -413.82695 -191.625 -412.62695 C -192.69167 -411.42695 -193.525 -409.97734 -194.125 -408.27734 C -194.725 -406.61068 -195.02539 -404.7599 -195.02539 -402.72656 C -195.02539 -400.6599 -194.725 -398.79362 -194.125 -397.12695 C -193.525 -395.46029 -192.69167 -394.02813 -191.625 -392.82812 C -190.525 -391.62812 -189.22461 -390.69401 -187.72461 -390.02734 C -186.22461 -389.39401 -184.59284 -389.07812 -182.82617 -389.07812 C -181.05951 -389.07812 -179.42578 -389.39401 -177.92578 -390.02734 C -176.42578 -390.69401 -175.14284 -391.62812 -174.07617 -392.82812 C -172.97617 -394.02813 -172.12539 -395.46029 -171.52539 -397.12695 C -170.92539 -398.79362 -170.625 -400.6599 -170.625 -402.72656 C -170.625 -404.7599 -170.92539 -406.61068 -171.52539 -408.27734 C -172.12539 -409.97734 -172.97617 -411.42695 -174.07617 -412.62695 C -175.14284 -413.82695 -176.42578 -414.74362 -177.92578 -415.37695 C -179.42578 -416.04362 -181.05951 -416.37695 -182.82617 -416.37695 z M -127.47266 -416.37695 C -130.40599 -416.37695 -132.72188 -415.69479 -134.42188 -414.32812 C -136.12187 -412.99479 -136.97266 -411.17695 -136.97266 -408.87695 C -136.97266 -407.71029 -136.77305 -406.72773 -136.37305 -405.92773 C -135.97305 -405.12773 -135.43815 -404.44362 -134.77148 -403.87695 C -134.10482 -403.31029 -133.32187 -402.81029 -132.42188 -402.37695 C -131.48854 -401.97695 -130.52148 -401.57773 -129.52148 -401.17773 C -127.45482 -400.3444 -125.97227 -399.5944 -125.07227 -398.92773 C -124.17227 -398.26107 -123.72266 -397.3599 -123.72266 -396.22656 C -123.72266 -395.12656 -124.18971 -394.32812 -125.12305 -393.82812 C -126.02305 -393.32812 -127.42227 -393.07812 -129.32227 -393.07812 C -131.2556 -393.07813 -132.80599 -393.27773 -133.97266 -393.67773 C -135.13932 -394.07773 -135.98815 -394.37812 -136.52148 -394.57812 L -137.37305 -390.57812 C -136.90638 -390.37812 -136.02266 -390.09323 -134.72266 -389.72656 C -133.42266 -389.32656 -131.62227 -389.12695 -129.32227 -389.12695 C -126.02227 -389.12695 -123.48932 -389.74323 -121.72266 -390.97656 C -119.92266 -392.2099 -119.02148 -394.02773 -119.02148 -396.42773 C -119.02148 -397.66107 -119.2056 -398.69401 -119.57227 -399.52734 C -119.93893 -400.39401 -120.47188 -401.12656 -121.17188 -401.72656 C -121.83854 -402.32656 -122.65638 -402.84401 -123.62305 -403.27734 C -124.58971 -403.74401 -125.68854 -404.21107 -126.92188 -404.67773 C -127.85521 -405.01107 -128.6556 -405.32695 -129.32227 -405.62695 C -129.98893 -405.92695 -130.55482 -406.24479 -131.02148 -406.57812 C -131.45482 -406.94479 -131.78815 -407.34401 -132.02148 -407.77734 C -132.22148 -408.21068 -132.32227 -408.71068 -132.32227 -409.27734 C -132.32227 -410.37734 -131.83971 -411.17773 -130.87305 -411.67773 C -129.90638 -412.21107 -128.77266 -412.47656 -127.47266 -412.47656 C -125.97266 -412.47656 -124.68971 -412.32734 -123.62305 -412.02734 C -122.55638 -411.76068 -121.77148 -411.49323 -121.27148 -411.22656 L -120.42188 -415.22656 C -120.68854 -415.32656 -121.07227 -415.44479 -121.57227 -415.57812 C -122.03893 -415.71146 -122.58932 -415.82773 -123.22266 -415.92773 C -123.85599 -416.06107 -124.53815 -416.1599 -125.27148 -416.22656 C -126.00482 -416.32656 -126.73932 -416.37695 -127.47266 -416.37695 z M -351.20508 -416.27734 C -353.37174 -416.27734 -355.28841 -416.11068 -356.95508 -415.77734 C -358.58841 -415.47734 -359.95664 -415.1944 -361.05664 -414.92773 L -361.05664 -380.47656 L -356.40625 -380.47656 L -356.40625 -390.87695 C -355.83958 -390.51029 -354.9888 -390.12656 -353.85547 -389.72656 C -352.6888 -389.32656 -351.35547 -389.12695 -349.85547 -389.12695 C -347.9888 -389.12695 -346.33958 -389.46029 -344.90625 -390.12695 C -343.43958 -390.79362 -342.20508 -391.72773 -341.20508 -392.92773 C -340.20508 -394.12773 -339.45508 -395.5599 -338.95508 -397.22656 C -338.42174 -398.89323 -338.15625 -400.71107 -338.15625 -402.67773 C -338.15625 -404.77773 -338.47214 -406.66146 -339.10547 -408.32812 C -339.70547 -410.02813 -340.57174 -411.46029 -341.70508 -412.62695 C -342.83841 -413.79362 -344.20664 -414.69479 -345.80664 -415.32812 C -347.40664 -415.96146 -349.20508 -416.27734 -351.20508 -416.27734 z M -321.71289 -416.27734 C -323.87956 -416.27734 -325.79622 -416.11068 -327.46289 -415.77734 C -329.09622 -415.47734 -330.46445 -415.1944 -331.56445 -414.92773 L -331.56445 -380.47656 L -326.91406 -380.47656 L -326.91406 -390.87695 C -326.3474 -390.51029 -325.49661 -390.12656 -324.36328 -389.72656 C -323.19661 -389.32656 -321.86328 -389.12695 -320.36328 -389.12695 C -318.49661 -389.12695 -316.8474 -389.46029 -315.41406 -390.12695 C -313.9474 -390.79362 -312.71289 -391.72773 -311.71289 -392.92773 C -310.71289 -394.12773 -309.96289 -395.5599 -309.46289 -397.22656 C -308.92956 -398.89323 -308.66406 -400.71107 -308.66406 -402.67773 C -308.66406 -404.77773 -308.97995 -406.66146 -309.61328 -408.32812 C -310.21328 -410.02813 -311.07956 -411.46029 -312.21289 -412.62695 C -313.34622 -413.79362 -314.71445 -414.69479 -316.31445 -415.32812 C -317.91445 -415.96146 -319.71289 -416.27734 -321.71289 -416.27734 z M -153.73242 -416.27734 C -156.03242 -416.27734 -158.06732 -416.12812 -159.83398 -415.82812 C -161.60065 -415.52812 -163.01732 -415.24323 -164.08398 -414.97656 L -164.08398 -389.72656 L -159.43359 -389.72656 L -159.43359 -411.67773 C -159.26693 -411.71107 -158.99948 -411.76146 -158.63281 -411.82812 C -158.23281 -411.89479 -157.80065 -411.94323 -157.33398 -411.97656 C -156.83398 -412.04323 -156.31654 -412.09362 -155.7832 -412.12695 C -155.24987 -412.16029 -154.73242 -412.17773 -154.23242 -412.17773 C -152.99909 -412.17773 -151.96615 -412.01107 -151.13281 -411.67773 C -150.29948 -411.37773 -149.63281 -410.87773 -149.13281 -410.17773 C -148.63281 -409.47773 -148.28398 -408.56107 -148.08398 -407.42773 C -147.85065 -406.2944 -147.73242 -404.92812 -147.73242 -403.32812 L -147.73242 -389.72656 L -143.08398 -389.72656 L -143.08398 -404.32812 C -143.08398 -406.09479 -143.25065 -407.71107 -143.58398 -409.17773 C -143.91732 -410.6444 -144.50065 -411.8944 -145.33398 -412.92773 C -146.13398 -413.9944 -147.21732 -414.81029 -148.58398 -415.37695 C -149.95065 -415.97695 -151.66576 -416.27734 -153.73242 -416.27734 z M -288.40039 -415.72656 L -288.40039 -389.72656 L -283.75 -389.72656 L -283.75 -415.72656 L -288.40039 -415.72656 z M -206.27148 -415.72656 L -206.27148 -389.72656 L -201.62109 -389.72656 L -201.62109 -415.72656 L -206.27148 -415.72656 z M -182.82617 -412.27734 C -180.55951 -412.27734 -178.77461 -411.41107 -177.47461 -409.67773 C -176.14128 -407.97773 -175.47461 -405.6599 -175.47461 -402.72656 C -175.47461 -399.79323 -176.14128 -397.4599 -177.47461 -395.72656 C -178.77461 -394.02656 -180.55951 -393.17773 -182.82617 -393.17773 C -185.09284 -393.17773 -186.89128 -394.02656 -188.22461 -395.72656 C -189.52461 -397.4599 -190.17578 -399.79323 -190.17578 -402.72656 C -190.17578 -405.6599 -189.52461 -407.97773 -188.22461 -409.67773 C -186.89128 -411.41107 -185.09284 -412.27734 -182.82617 -412.27734 z M -351.25586 -412.12695 C -348.75586 -412.12695 -346.75586 -411.31107 -345.25586 -409.67773 C -343.75586 -408.0444 -343.00586 -405.71107 -343.00586 -402.67773 C -343.00586 -401.3444 -343.13958 -400.0944 -343.40625 -398.92773 C -343.67292 -397.7944 -344.10508 -396.7944 -344.70508 -395.92773 C -345.30508 -395.0944 -346.08997 -394.42773 -347.05664 -393.92773 C -347.98997 -393.46107 -349.12174 -393.22656 -350.45508 -393.22656 C -351.72174 -393.22656 -352.88841 -393.44362 -353.95508 -393.87695 C -355.02174 -394.31029 -355.83958 -394.7599 -356.40625 -395.22656 L -356.40625 -411.62695 C -355.93958 -411.76029 -355.32331 -411.87656 -354.55664 -411.97656 C -353.75664 -412.07656 -352.65586 -412.12695 -351.25586 -412.12695 z M -321.76367 -412.12695 C -319.26367 -412.12695 -317.26367 -411.31107 -315.76367 -409.67773 C -314.26367 -408.0444 -313.51367 -405.71107 -313.51367 -402.67773 C -313.51367 -401.3444 -313.6474 -400.0944 -313.91406 -398.92773 C -314.18073 -397.7944 -314.61289 -396.7944 -315.21289 -395.92773 C -315.81289 -395.0944 -316.59779 -394.42773 -317.56445 -393.92773 C -318.49779 -393.46107 -319.62956 -393.22656 -320.96289 -393.22656 C -322.22956 -393.22656 -323.39622 -393.44362 -324.46289 -393.87695 C -325.52956 -394.31029 -326.3474 -394.7599 -326.91406 -395.22656 L -326.91406 -411.62695 C -326.4474 -411.76029 -325.83112 -411.87656 -325.06445 -411.97656 C -324.26445 -412.07656 -323.16367 -412.12695 -321.76367 -412.12695 z M -242.96289 -401.77734 C -241.89622 -401.77734 -240.99505 -401.71146 -240.26172 -401.57812 C -239.49505 -401.47813 -238.94466 -401.3444 -238.61133 -401.17773 L -238.61133 -393.42773 C -239.17799 -393.2944 -239.89505 -393.19362 -240.76172 -393.12695 C -241.59505 -393.09362 -242.56211 -393.07812 -243.66211 -393.07812 C -245.49544 -393.07812 -246.94505 -393.39401 -248.01172 -394.02734 C -249.07839 -394.69401 -249.61133 -395.86068 -249.61133 -397.52734 C -249.61133 -398.42734 -249.39622 -399.1444 -248.96289 -399.67773 C -248.52956 -400.2444 -247.99466 -400.67656 -247.36133 -400.97656 C -246.69466 -401.3099 -245.97956 -401.52695 -245.21289 -401.62695 C -244.41289 -401.72695 -243.66289 -401.77734 -242.96289 -401.77734 z M -152.21289 -364.02734 C -153.04622 -364.02734 -153.76328 -363.7444 -154.36328 -363.17773 C -154.92995 -362.6444 -155.21289 -361.9099 -155.21289 -360.97656 C -155.21289 -360.04323 -154.92995 -359.29323 -154.36328 -358.72656 C -153.76328 -358.19323 -153.04622 -357.92773 -152.21289 -357.92773 C -151.37956 -357.92773 -150.67995 -358.19323 -150.11328 -358.72656 C -149.51328 -359.29323 -149.21289 -360.04323 -149.21289 -360.97656 C -149.21289 -361.9099 -149.51328 -362.6444 -150.11328 -363.17773 C -150.67995 -363.7444 -151.37956 -364.02734 -152.21289 -364.02734 z M -384.66211 -362.22656 C -386.06211 -362.22656 -387.61055 -362.16068 -389.31055 -362.02734 C -390.97721 -361.92734 -392.49466 -361.71029 -393.86133 -361.37695 L -393.86133 -327.22656 L -389.01172 -327.22656 L -389.01172 -340.07812 L -385.16211 -340.07812 C -382.72878 -340.07813 -380.54466 -340.27773 -378.61133 -340.67773 C -376.67799 -341.07773 -375.04427 -341.71146 -373.71094 -342.57812 C -372.34427 -343.47812 -371.31133 -344.62734 -370.61133 -346.02734 C -369.87799 -347.46068 -369.51172 -349.17773 -369.51172 -351.17773 C -369.51172 -354.8444 -370.8276 -357.5944 -373.46094 -359.42773 C -376.06094 -361.2944 -379.79544 -362.22656 -384.66211 -362.22656 z M -384.26172 -357.97656 C -382.96172 -357.97656 -381.72721 -357.87773 -380.56055 -357.67773 C -379.39388 -357.47773 -378.37839 -357.11146 -377.51172 -356.57812 C -376.61172 -356.07812 -375.91211 -355.39401 -375.41211 -354.52734 C -374.87878 -353.66068 -374.61133 -352.5599 -374.61133 -351.22656 C -374.61133 -349.82656 -374.86133 -348.67734 -375.36133 -347.77734 C -375.86133 -346.87734 -376.57839 -346.16029 -377.51172 -345.62695 C -378.41172 -345.12695 -379.52799 -344.76068 -380.86133 -344.52734 C -382.19466 -344.32734 -383.69466 -344.22656 -385.36133 -344.22656 L -389.01172 -344.22656 L -389.01172 -357.82812 C -387.91172 -357.92812 -386.32839 -357.97656 -384.26172 -357.97656 z M -333.70508 -353.87695 C -335.47174 -353.87695 -337.10352 -353.54362 -338.60352 -352.87695 C -340.10352 -352.24362 -341.40391 -351.32695 -342.50391 -350.12695 C -343.57057 -348.92695 -344.40391 -347.47734 -345.00391 -345.77734 C -345.60391 -344.11068 -345.9043 -342.2599 -345.9043 -340.22656 C -345.9043 -338.1599 -345.60391 -336.29362 -345.00391 -334.62695 C -344.40391 -332.96029 -343.57057 -331.52813 -342.50391 -330.32812 C -341.40391 -329.12813 -340.10352 -328.19401 -338.60352 -327.52734 C -337.10352 -326.89401 -335.47174 -326.57812 -333.70508 -326.57812 C -331.93841 -326.57812 -330.30469 -326.89401 -328.80469 -327.52734 C -327.30469 -328.19401 -326.02174 -329.12813 -324.95508 -330.32812 C -323.85508 -331.52812 -323.0043 -332.96029 -322.4043 -334.62695 C -321.8043 -336.29362 -321.50391 -338.1599 -321.50391 -340.22656 C -321.50391 -342.2599 -321.8043 -344.11068 -322.4043 -345.77734 C -323.0043 -347.47734 -323.85508 -348.92695 -324.95508 -350.12695 C -326.02174 -351.32695 -327.30469 -352.24362 -328.80469 -352.87695 C -330.30469 -353.54362 -331.93841 -353.87695 -333.70508 -353.87695 z M -258.32031 -353.87695 C -259.95365 -353.87695 -261.46914 -353.74323 -262.86914 -353.47656 C -264.26914 -353.24323 -265.26914 -352.99323 -265.86914 -352.72656 L -265.32031 -348.87695 C -264.75365 -349.11029 -263.90286 -349.32734 -262.76953 -349.52734 C -261.60286 -349.76068 -260.25404 -349.87695 -258.7207 -349.87695 C -257.5207 -349.87695 -256.55365 -349.69479 -255.82031 -349.32812 C -255.05365 -348.99479 -254.45286 -348.52773 -254.01953 -347.92773 C -253.5862 -347.36107 -253.28581 -346.6944 -253.11914 -345.92773 C -252.95247 -345.1944 -252.86914 -344.4444 -252.86914 -343.67773 L -252.86914 -342.37695 C -253.00247 -342.41029 -253.23698 -342.46068 -253.57031 -342.52734 C -253.90365 -342.59401 -254.30286 -342.6599 -254.76953 -342.72656 C -255.20286 -342.82656 -255.66992 -342.8944 -256.16992 -342.92773 C -256.66992 -342.9944 -257.15247 -343.02734 -257.61914 -343.02734 C -259.08581 -343.02734 -260.48698 -342.87812 -261.82031 -342.57812 C -263.15365 -342.27813 -264.32031 -341.81107 -265.32031 -341.17773 C -266.32031 -340.5444 -267.1207 -339.71107 -267.7207 -338.67773 C -268.28737 -337.6444 -268.57031 -336.4099 -268.57031 -334.97656 C -268.57031 -333.47656 -268.32031 -332.19362 -267.82031 -331.12695 C -267.32031 -330.06029 -266.6207 -329.19401 -265.7207 -328.52734 C -264.8207 -327.89401 -263.75286 -327.42695 -262.51953 -327.12695 C -261.2862 -326.82695 -259.93737 -326.67773 -258.4707 -326.67773 C -257.43737 -326.67773 -256.40247 -326.72813 -255.36914 -326.82812 C -254.30247 -326.89479 -253.31992 -326.97813 -252.41992 -327.07812 C -251.51992 -327.17812 -250.71953 -327.27695 -250.01953 -327.37695 C -249.2862 -327.51029 -248.72031 -327.61107 -248.32031 -327.67773 L -248.32031 -343.92773 C -248.32031 -345.3944 -248.48698 -346.72773 -248.82031 -347.92773 C -249.15365 -349.16107 -249.71953 -350.21146 -250.51953 -351.07812 C -251.2862 -351.97813 -252.31914 -352.66029 -253.61914 -353.12695 C -254.88581 -353.62695 -256.45365 -353.87695 -258.32031 -353.87695 z M -354.18945 -353.77734 C -356.22279 -353.77734 -358.05612 -353.59323 -359.68945 -353.22656 C -361.32279 -352.89323 -362.69102 -352.52695 -363.79102 -352.12695 L -363.79102 -327.22656 L -359.14062 -327.22656 L -359.14062 -349.07812 C -358.87396 -349.14479 -358.32357 -349.26107 -357.49023 -349.42773 C -356.62357 -349.62773 -355.75729 -349.72656 -354.89062 -349.72656 C -353.55729 -349.72656 -352.47396 -349.62773 -351.64062 -349.42773 C -350.77396 -349.26107 -350.15768 -349.1099 -349.79102 -348.97656 L -348.99023 -353.02734 C -349.19023 -353.09401 -349.50612 -353.1599 -349.93945 -353.22656 C -350.33945 -353.32656 -350.79102 -353.4099 -351.29102 -353.47656 C -351.79102 -353.57656 -352.30651 -353.6444 -352.83984 -353.67773 C -353.33984 -353.7444 -353.78945 -353.77734 -354.18945 -353.77734 z M -303.8125 -353.77734 C -305.77917 -353.77734 -307.54466 -353.44401 -309.11133 -352.77734 C -310.67799 -352.14401 -312.01133 -351.24479 -313.11133 -350.07812 C -314.17799 -348.94479 -314.99583 -347.57656 -315.5625 -345.97656 C -316.12917 -344.4099 -316.41211 -342.67734 -316.41211 -340.77734 C -316.41211 -338.61068 -316.11172 -336.7444 -315.51172 -335.17773 C -314.91172 -333.61107 -314.09583 -332.29323 -313.0625 -331.22656 C -312.02917 -330.19323 -310.82956 -329.42773 -309.46289 -328.92773 C -308.06289 -328.42773 -306.57839 -328.17773 -305.01172 -328.17773 C -303.47839 -328.17773 -302.14505 -328.37734 -301.01172 -328.77734 C -299.84505 -329.21068 -299.06211 -329.56146 -298.66211 -329.82812 L -298.66211 -328.72656 C -298.66211 -326.32656 -299.27839 -324.57656 -300.51172 -323.47656 C -301.71172 -322.37656 -303.69622 -321.82812 -306.46289 -321.82812 C -307.92956 -321.82812 -309.34622 -321.97734 -310.71289 -322.27734 C -312.04622 -322.54401 -313.17799 -322.8599 -314.11133 -323.22656 L -314.96289 -319.17773 C -313.89622 -318.81107 -312.64622 -318.49323 -311.21289 -318.22656 C -309.74622 -317.9599 -308.19583 -317.82812 -306.5625 -317.82812 C -302.3625 -317.82812 -299.22878 -318.72734 -297.16211 -320.52734 C -295.09544 -322.32734 -294.0625 -325.22656 -294.0625 -329.22656 L -294.0625 -352.42773 C -295.1625 -352.6944 -296.52878 -352.97734 -298.16211 -353.27734 C -299.76211 -353.61068 -301.64583 -353.77734 -303.8125 -353.77734 z M -276.45508 -353.77734 C -278.48841 -353.77734 -280.32174 -353.59323 -281.95508 -353.22656 C -283.58841 -352.89323 -284.95664 -352.52695 -286.05664 -352.12695 L -286.05664 -327.22656 L -281.40625 -327.22656 L -281.40625 -349.07812 C -281.13958 -349.14479 -280.58919 -349.26107 -279.75586 -349.42773 C -278.88919 -349.62773 -278.02292 -349.72656 -277.15625 -349.72656 C -275.82292 -349.72656 -274.73958 -349.62773 -273.90625 -349.42773 C -273.03958 -349.26107 -272.42331 -349.1099 -272.05664 -348.97656 L -271.25586 -353.02734 C -271.45586 -353.09401 -271.77174 -353.1599 -272.20508 -353.22656 C -272.60508 -353.32656 -273.05664 -353.4099 -273.55664 -353.47656 C -274.05664 -353.57656 -274.57214 -353.6444 -275.10547 -353.67773 C -275.60547 -353.7444 -276.05508 -353.77734 -276.45508 -353.77734 z M -230.3457 -353.77734 C -232.6457 -353.77734 -234.67865 -353.62812 -236.44531 -353.32812 C -238.17865 -353.02812 -239.57982 -352.74323 -240.64648 -352.47656 L -240.64648 -327.22656 L -235.99609 -327.22656 L -235.99609 -349.17773 C -235.86276 -349.21107 -235.59531 -349.26146 -235.19531 -349.32812 C -234.79531 -349.39479 -234.36315 -349.44323 -233.89648 -349.47656 C -233.39648 -349.54323 -232.87904 -349.59362 -232.3457 -349.62695 C -231.81237 -349.66029 -231.31237 -349.67773 -230.8457 -349.67773 C -229.7457 -349.67773 -228.84648 -349.49362 -228.14648 -349.12695 C -227.41315 -348.79362 -226.84531 -348.26068 -226.44531 -347.52734 C -226.01198 -346.79401 -225.71159 -345.87734 -225.54492 -344.77734 C -225.37826 -343.67734 -225.29492 -342.36146 -225.29492 -340.82812 L -225.29492 -327.22656 L -220.64648 -327.22656 L -220.64648 -341.82812 C -220.64648 -342.96146 -220.71237 -344.04479 -220.8457 -345.07812 C -220.97904 -346.11146 -221.17865 -347.06107 -221.44531 -347.92773 C -221.07865 -348.26107 -220.39648 -348.62734 -219.39648 -349.02734 C -218.36315 -349.46068 -217.06276 -349.67773 -215.49609 -349.67773 C -214.36276 -349.67773 -213.44609 -349.49362 -212.74609 -349.12695 C -212.01276 -348.79362 -211.44492 -348.26068 -211.04492 -347.52734 C -210.61159 -346.79401 -210.32865 -345.87734 -210.19531 -344.77734 C -210.02865 -343.67734 -209.94531 -342.36146 -209.94531 -340.82812 L -209.94531 -327.22656 L -205.29492 -327.22656 L -205.29492 -341.82812 C -205.29492 -343.56146 -205.42865 -345.16029 -205.69531 -346.62695 C -205.92865 -348.09362 -206.41315 -349.36107 -207.14648 -350.42773 C -207.84648 -351.4944 -208.82904 -352.31029 -210.0957 -352.87695 C -211.36237 -353.47695 -212.99609 -353.77734 -214.99609 -353.77734 C -216.02943 -353.77734 -216.99648 -353.66107 -217.89648 -353.42773 C -218.79648 -353.22773 -219.61237 -352.97773 -220.3457 -352.67773 C -221.07904 -352.41107 -221.69531 -352.12813 -222.19531 -351.82812 C -222.69531 -351.52812 -223.06159 -351.29362 -223.29492 -351.12695 C -224.06159 -351.99362 -225.01315 -352.64479 -226.14648 -353.07812 C -227.27982 -353.54479 -228.67904 -353.77734 -230.3457 -353.77734 z M -187.2793 -353.77734 C -189.5793 -353.77734 -191.61224 -353.62812 -193.37891 -353.32812 C -195.11224 -353.02812 -196.51341 -352.74323 -197.58008 -352.47656 L -197.58008 -327.22656 L -192.92969 -327.22656 L -192.92969 -349.17773 C -192.79635 -349.21107 -192.52891 -349.26146 -192.12891 -349.32812 C -191.72891 -349.39479 -191.29674 -349.44323 -190.83008 -349.47656 C -190.33008 -349.54323 -189.81263 -349.59362 -189.2793 -349.62695 C -188.74596 -349.66029 -188.24596 -349.67773 -187.7793 -349.67773 C -186.6793 -349.67773 -185.78008 -349.49362 -185.08008 -349.12695 C -184.34674 -348.79362 -183.77891 -348.26068 -183.37891 -347.52734 C -182.94557 -346.79401 -182.64518 -345.87734 -182.47852 -344.77734 C -182.31185 -343.67734 -182.22852 -342.36146 -182.22852 -340.82812 L -182.22852 -327.22656 L -177.58008 -327.22656 L -177.58008 -341.82812 C -177.58008 -342.96146 -177.64596 -344.04479 -177.7793 -345.07812 C -177.91263 -346.11146 -178.11224 -347.06107 -178.37891 -347.92773 C -178.01224 -348.26107 -177.33008 -348.62734 -176.33008 -349.02734 C -175.29674 -349.46068 -173.99635 -349.67773 -172.42969 -349.67773 C -171.29635 -349.67773 -170.37969 -349.49362 -169.67969 -349.12695 C -168.94635 -348.79362 -168.37852 -348.26068 -167.97852 -347.52734 C -167.54518 -346.79401 -167.26224 -345.87734 -167.12891 -344.77734 C -166.96224 -343.67734 -166.87891 -342.36146 -166.87891 -340.82812 L -166.87891 -327.22656 L -162.22852 -327.22656 L -162.22852 -341.82812 C -162.22852 -343.56146 -162.36224 -345.16029 -162.62891 -346.62695 C -162.86224 -348.09362 -163.34674 -349.36107 -164.08008 -350.42773 C -164.78008 -351.4944 -165.76263 -352.31029 -167.0293 -352.87695 C -168.29596 -353.47695 -169.92969 -353.77734 -171.92969 -353.77734 C -172.96302 -353.77734 -173.93008 -353.66107 -174.83008 -353.42773 C -175.73008 -353.22773 -176.54596 -352.97773 -177.2793 -352.67773 C -178.01263 -352.41107 -178.62891 -352.12813 -179.12891 -351.82812 C -179.62891 -351.52812 -179.99518 -351.29362 -180.22852 -351.12695 C -180.99518 -351.99362 -181.94674 -352.64479 -183.08008 -353.07812 C -184.21341 -353.54479 -185.61263 -353.77734 -187.2793 -353.77734 z M -131.4668 -353.77734 C -133.7668 -353.77734 -135.80169 -353.62812 -137.56836 -353.32812 C -139.33503 -353.02812 -140.75169 -352.74323 -141.81836 -352.47656 L -141.81836 -327.22656 L -137.16797 -327.22656 L -137.16797 -349.17773 C -137.0013 -349.21107 -136.73385 -349.26146 -136.36719 -349.32812 C -135.96719 -349.39479 -135.53503 -349.44323 -135.06836 -349.47656 C -134.56836 -349.54323 -134.05091 -349.59362 -133.51758 -349.62695 C -132.98424 -349.66029 -132.4668 -349.67773 -131.9668 -349.67773 C -130.73346 -349.67773 -129.70052 -349.51107 -128.86719 -349.17773 C -128.03385 -348.87773 -127.36719 -348.37773 -126.86719 -347.67773 C -126.36719 -346.97773 -126.01836 -346.06107 -125.81836 -344.92773 C -125.58503 -343.7944 -125.4668 -342.42812 -125.4668 -340.82812 L -125.4668 -327.22656 L -120.81836 -327.22656 L -120.81836 -341.82812 C -120.81836 -343.59479 -120.98503 -345.21107 -121.31836 -346.67773 C -121.65169 -348.1444 -122.23503 -349.3944 -123.06836 -350.42773 C -123.86836 -351.4944 -124.95169 -352.31029 -126.31836 -352.87695 C -127.68503 -353.47695 -129.40013 -353.77734 -131.4668 -353.77734 z M -101.95703 -353.77734 C -103.9237 -353.77734 -105.68919 -353.44401 -107.25586 -352.77734 C -108.82253 -352.14401 -110.15586 -351.24479 -111.25586 -350.07812 C -112.32253 -348.94479 -113.14036 -347.57656 -113.70703 -345.97656 C -114.2737 -344.4099 -114.55664 -342.67734 -114.55664 -340.77734 C -114.55664 -338.61068 -114.25625 -336.7444 -113.65625 -335.17773 C -113.05625 -333.61107 -112.24036 -332.29323 -111.20703 -331.22656 C -110.1737 -330.19323 -108.97409 -329.42773 -107.60742 -328.92773 C -106.20742 -328.42773 -104.72292 -328.17773 -103.15625 -328.17773 C -101.62292 -328.17773 -100.28958 -328.37734 -99.15625 -328.77734 C -97.989583 -329.21068 -97.206641 -329.56146 -96.806641 -329.82812 L -96.806641 -328.72656 C -96.806641 -326.32656 -97.422917 -324.57656 -98.65625 -323.47656 C -99.85625 -322.37656 -101.84076 -321.82812 -104.60742 -321.82812 C -106.07409 -321.82812 -107.49076 -321.97734 -108.85742 -322.27734 C -110.19076 -322.54401 -111.32253 -322.8599 -112.25586 -323.22656 L -113.10742 -319.17773 C -112.04076 -318.81107 -110.79076 -318.49323 -109.35742 -318.22656 C -107.89076 -317.9599 -106.34036 -317.82812 -104.70703 -317.82812 C -100.50703 -317.82812 -97.373307 -318.72734 -95.306641 -320.52734 C -93.239974 -322.32734 -92.207031 -325.22656 -92.207031 -329.22656 L -92.207031 -352.42773 C -93.307031 -352.6944 -94.673307 -352.97734 -96.306641 -353.27734 C -97.906641 -353.61068 -99.790365 -353.77734 -101.95703 -353.77734 z M -154.51367 -353.22656 L -154.51367 -327.22656 L -149.86328 -327.22656 L -149.86328 -353.22656 L -154.51367 -353.22656 z M -333.70508 -349.77734 C -331.43841 -349.77734 -329.65352 -348.91107 -328.35352 -347.17773 C -327.02018 -345.47773 -326.35352 -343.1599 -326.35352 -340.22656 C -326.35352 -337.29323 -327.02018 -334.9599 -328.35352 -333.22656 C -329.65352 -331.52656 -331.43841 -330.67773 -333.70508 -330.67773 C -335.97174 -330.67773 -337.77018 -331.52656 -339.10352 -333.22656 C -340.40352 -334.9599 -341.05469 -337.29323 -341.05469 -340.22656 C -341.05469 -343.1599 -340.40352 -345.47773 -339.10352 -347.17773 C -337.77018 -348.91107 -335.97174 -349.77734 -333.70508 -349.77734 z M -303.76172 -349.67773 C -302.42839 -349.67773 -301.37799 -349.6099 -300.61133 -349.47656 C -299.81133 -349.37656 -299.17956 -349.26029 -298.71289 -349.12695 L -298.71289 -333.92773 C -299.31289 -333.46107 -300.12878 -333.0444 -301.16211 -332.67773 C -302.19544 -332.3444 -303.32917 -332.17773 -304.5625 -332.17773 C -305.4625 -332.17773 -306.34622 -332.3444 -307.21289 -332.67773 C -308.04622 -333.01107 -308.79622 -333.52656 -309.46289 -334.22656 C -310.09622 -334.92656 -310.61172 -335.81029 -311.01172 -336.87695 C -311.37839 -337.94362 -311.5625 -339.22656 -311.5625 -340.72656 C -311.5625 -343.42656 -310.89583 -345.59323 -309.5625 -347.22656 C -308.19583 -348.8599 -306.26172 -349.67773 -303.76172 -349.67773 z M -101.90625 -349.67773 C -100.57292 -349.67773 -99.522526 -349.6099 -98.755859 -349.47656 C -97.955859 -349.37656 -97.324089 -349.26029 -96.857422 -349.12695 L -96.857422 -333.92773 C -97.457422 -333.46107 -98.273307 -333.0444 -99.306641 -332.67773 C -100.33997 -332.3444 -101.4737 -332.17773 -102.70703 -332.17773 C -103.60703 -332.17773 -104.49076 -332.3444 -105.35742 -332.67773 C -106.19076 -333.01107 -106.94076 -333.52656 -107.60742 -334.22656 C -108.24076 -334.92656 -108.75625 -335.81029 -109.15625 -336.87695 C -109.52292 -337.94362 -109.70703 -339.22656 -109.70703 -340.72656 C -109.70703 -343.42656 -109.04036 -345.59323 -107.70703 -347.22656 C -106.34036 -348.8599 -104.40625 -349.67773 -101.90625 -349.67773 z M -257.2207 -339.27734 C -256.15404 -339.27734 -255.25286 -339.21146 -254.51953 -339.07812 C -253.75286 -338.97813 -253.20247 -338.8444 -252.86914 -338.67773 L -252.86914 -330.92773 C -253.43581 -330.7944 -254.15286 -330.69362 -255.01953 -330.62695 C -255.85286 -330.59362 -256.81992 -330.57812 -257.91992 -330.57812 C -259.75326 -330.57812 -261.20286 -330.89401 -262.26953 -331.52734 C -263.3362 -332.19401 -263.86914 -333.36068 -263.86914 -335.02734 C -263.86914 -335.92734 -263.65404 -336.6444 -263.2207 -337.17773 C -262.78737 -337.7444 -262.25247 -338.17656 -261.61914 -338.47656 C -260.95247 -338.8099 -260.23737 -339.02695 -259.4707 -339.12695 C -258.6707 -339.22695 -257.9207 -339.27734 -257.2207 -339.27734 z "
       transform="translate(0,842.36218)"
       id="text3468-8" />
  </g>
</svg>
